<svg width="110" height="110" viewBox="0 0 110 110" fill="none" xmlns="http://www.w3.org/2000/svg">
<g clip-path="url(#clip0)">
<path d="M68.7498 9.16667H41.2498C38.7198 9.16667 36.6665 7.11333 36.6665 4.58333C36.6665 2.05333 38.7198 0 41.2498 0H68.7498C71.2798 0 73.3332 2.05333 73.3332 4.58333C73.3332 7.11333 71.2798 9.16667 68.7498 9.16667Z" fill="#06E0A1"/>
<path d="M79.8372 110.001H34.2513C19.9192 110.001 9.84966 102.333 9.20341 90.9163C8.95133 86.4567 10.1155 82.1484 12.5767 78.4634L38.8347 40.2934C40.4113 37.988 41.2501 35.293 41.2501 32.4971V6.8763C41.2501 4.3463 43.3034 2.29297 45.8334 2.29297C48.3634 2.29297 50.4168 4.3463 50.4168 6.8763V32.4971C50.4168 37.1584 49.0188 41.65 46.3788 45.4863L20.1622 83.6013C18.8513 85.5675 18.2142 87.9325 18.3517 90.3938C18.7138 96.7371 24.9517 100.835 34.2513 100.835H79.8418C86.0247 100.835 91.323 96.155 91.6484 90.3984C91.7905 87.9371 91.1534 85.5721 89.8013 83.5509L63.6213 45.4863C60.9813 41.65 59.5834 37.1584 59.5834 32.4971V6.8763C59.5834 4.3463 61.6367 2.29297 64.1668 2.29297C66.6968 2.29297 68.7501 4.3463 68.7501 6.8763V32.4971C68.7501 35.293 69.5888 37.988 71.1701 40.2888L97.3867 78.4038C99.8847 82.1438 101.049 86.4521 100.797 90.9117C100.192 101.618 90.9838 110.001 79.8372 110.001Z" fill="#06E0A1"/>
<path d="M77.2108 91.6658H32.7892C29.8742 91.6658 27.5 89.3879 27.5 86.592C27.5 85.4966 27.8575 84.4562 28.5358 83.5762C28.5954 83.4983 28.6596 83.4204 28.7283 83.347L41.6854 66.4529C42.2996 65.6554 43.23 65.165 44.2383 65.1145C45.0679 65.0733 45.87 64.8808 46.5025 64.5737L49.3625 63.1483C52.8 61.4708 57.2092 61.4662 60.6238 63.1345L63.5387 64.5875C64.1392 64.8762 64.9413 65.0687 65.7708 65.1145C66.7746 65.165 67.7096 65.6554 68.3237 66.4529L81.2808 83.3425C81.3496 83.4158 81.4137 83.4937 81.4733 83.5716C82.1425 84.4516 82.5 85.4966 82.5 86.592C82.5 89.3879 80.1258 91.6658 77.2108 91.6658Z" fill="#06E0A1"/>
</g>
<defs>
<clipPath id="clip0">
<rect width="110" height="110" fill="white"/>
</clipPath>
</defs>
</svg>
