<svg width="110" height="110" viewBox="0 0 110 110" fill="none" xmlns="http://www.w3.org/2000/svg">
<g clip-path="url(#clip0)">
<path d="M13.1055 38.6719H25.9961V45.1172H13.1055V38.6719Z" fill="#06E0A1"/>
<path d="M84.0039 38.6719H96.8945V45.1172H84.0039V38.6719Z" fill="#06E0A1"/>
<path d="M14.8684 58.3281L27.7529 51.8859L30.6342 57.6486L17.7498 64.0908L14.8684 58.3281Z" fill="#06E0A1"/>
<path d="M79.3003 57.6934L82.1816 51.9307L95.0661 58.3729L92.1847 64.1356L79.3003 57.6934Z" fill="#06E0A1"/>
<path d="M74.3359 110L80.7812 74.1211L61.4453 67.6758C61.3202 44.4327 61.7196 45.0448 61.123 43.0547C60.2207 40.4763 57.8359 38.6719 55 38.6719C52.2506 38.6719 49.9395 40.3981 49.0058 42.7324C48.1366 45.3415 48.7508 42.9481 48.5547 84.3689L44.7517 80.5664C42.2382 78.0527 38.1777 78.0527 35.664 80.5664L31.0876 85.1424C31.0876 85.1424 47.7812 101.836 48.5547 102.545V110H74.3359Z" fill="#06E0A1"/>
<path d="M67.8906 0C61.8292 0 57.5429 3.10299 55 5.74041C52.4571 3.10299 48.1708 0 42.1094 0C32.9261 0 25.9961 8.77422 25.9961 20.4123C25.9961 26.7912 28.363 38.083 42.1094 49.6656C42.3083 46.1222 41.6247 44.483 42.8961 40.6925C44.8914 35.6634 49.3414 32.4786 54.3643 32.233H54.3832C60.4824 32.233 65.3793 35.7199 67.2046 40.9127C68.2339 44.295 67.7755 45.5707 67.8906 49.6656C81.637 38.083 84.0039 26.7912 84.0039 20.4123C84.0039 8.77422 77.0739 0 67.8906 0V0Z" fill="#06E0A1"/>
</g>
<defs>
<clipPath id="clip0">
<rect width="110" height="110" fill="white"/>
</clipPath>
</defs>
</svg>
