<svg width="110" height="110" viewBox="0 0 110 110" fill="none" xmlns="http://www.w3.org/2000/svg">
<path d="M58.2227 19.3359H77.5586L58.2227 0V19.3359Z" fill="white"/>
<path d="M84.0039 58.4375C69.8552 58.4375 58.2227 70.0524 58.2227 84.2188C58.2227 98.6928 70.1108 110 84.0039 110C98.2227 110 109.785 98.4343 109.785 84.2188C109.785 70.0032 98.2227 58.4375 84.0039 58.4375ZM80.7812 95.2211L72.0575 86.4974L76.6146 81.9403L80.7812 86.107L91.3935 75.4948L95.9505 80.0519L80.7812 95.2211Z" fill="white"/>
<path d="M84.0039 51.9922V38.6719H49.8891L43.4438 32.2266H0.214844V97.1094H54.52C45.1707 76.2526 60.6781 51.9922 84.0039 51.9922Z" fill="white"/>
<path d="M6.66016 0V25.7812H46.1126L52.5579 32.2266H77.5586V25.7812H51.7773V0H6.66016ZM45.332 19.3359H19.5508V12.8906H45.332V19.3359Z" fill="white"/>
</svg>
