<svg width="110" height="110" viewBox="0 0 110 110" fill="none" xmlns="http://www.w3.org/2000/svg">
<path d="M52.9027 27.4219C52.9081 25.6141 53.0839 23.8109 53.4281 22.0359C49.7325 22.2089 46.112 23.136 42.7917 24.7596C42.544 24.881 42.2715 24.9442 41.9954 24.9442C41.7193 24.9442 41.4469 24.881 41.1992 24.7596C36.4697 22.4547 31.1695 21.565 25.9417 22.1986C21.6519 22.7173 17.5478 24.2445 13.9688 26.6538C10.3898 29.0631 7.43856 32.2854 5.3592 36.0542C3.27985 39.823 2.13206 44.0301 2.01073 48.3277C1.88941 52.6253 2.79804 56.8899 4.66149 60.7689C6.7638 64.9556 8.43097 69.3449 9.63705 73.8686L16.665 101.837C17.0186 103.243 17.8133 104.5 18.9337 105.426C20.0541 106.352 21.4419 106.899 22.8959 106.987C24.3498 107.076 25.7943 106.701 27.0196 105.917C28.2449 105.133 29.1873 103.982 29.7102 102.629L35.3583 88.0245C35.8744 86.6904 36.7847 85.5432 37.9692 84.734C39.1537 83.9249 40.5568 83.4918 41.9936 83.4918C43.4304 83.4918 44.8336 83.9249 46.018 84.734C47.2025 85.5432 48.1128 86.6904 48.6289 88.0245L54.2771 102.629C54.7999 103.982 55.7424 105.133 56.9677 105.917C58.193 106.701 59.6374 107.076 61.0913 106.987C62.5453 106.899 63.9331 106.352 65.0535 105.426C66.1739 104.5 66.9686 103.243 67.3222 101.837L74.3538 73.8668C75.5602 69.3438 77.2274 64.9551 79.3294 60.7689C80.0176 59.3343 80.5767 57.8417 81 56.3089C73.4684 56.0508 66.3312 52.8958 61.0906 47.5079C55.85 42.12 52.9148 34.9194 52.9027 27.4219ZM29.2702 32.202C24.4505 32.2073 19.8297 34.1145 16.4217 37.5051C13.0136 40.8958 11.0967 45.4929 11.0914 50.288H7.45559C7.46184 44.5339 9.76217 39.0172 13.8519 34.9484C17.9415 30.8796 23.4865 28.591 29.2702 28.5848V32.202Z" fill="white"/>
<path d="M81.5 3C76.4566 3 71.5264 4.46622 67.333 7.21326C63.1395 9.96029 59.8711 13.8648 57.9411 18.4329C56.011 23.0011 55.5061 28.0277 56.49 32.8773C57.4739 37.7268 59.9026 42.1813 63.4688 45.6777C67.035 49.174 71.5787 51.555 76.5252 52.5196C81.4717 53.4842 86.5989 52.9892 91.2584 51.097C95.9179 49.2048 99.9005 46.0005 102.702 41.8892C105.504 37.778 107 32.9445 107 28C106.993 21.3718 104.304 15.017 99.5232 10.3302C94.7426 5.64329 88.2608 3.00709 81.5 3ZM74.2143 45.8571L79.6786 29.7857H70.5714L85.1429 10.1429L83.3214 24.4286L92.4286 26.2143L74.2143 45.8571Z" fill="white"/>
</svg>
