<svg width="96" height="72" viewBox="0 0 96 72" fill="none" xmlns="http://www.w3.org/2000/svg">
<path d="M0 0H66C82.5685 0 96 13.4315 96 30V42C96 58.5685 82.5685 72 66 72H0V0Z" fill="#00C58A"/>
<path d="M61.7678 37.7678C62.7441 36.7915 62.7441 35.2085 61.7678 34.2322L45.8579 18.3223C44.8816 17.346 43.2986 17.346 42.3223 18.3223C41.346 19.2986 41.346 20.8816 42.3223 21.8579L56.4645 36L42.3223 50.1421C41.346 51.1184 41.346 52.7014 42.3223 53.6777C43.2986 54.654 44.8816 54.654 45.8579 53.6777L61.7678 37.7678ZM-2.18557e-07 38.5L60 38.5L60 33.5L2.18557e-07 33.5L-2.18557e-07 38.5Z" fill="white"/>
</svg>
