<svg width="96" height="96" viewBox="0 0 96 96" fill="none" xmlns="http://www.w3.org/2000/svg">
<path d="M91.4048 27.4672C87.486 19.161 81.2798 12.186 73.461 7.29223C62.586 0.504727 49.7048 -1.65152 37.2173 1.23598C24.7298 4.10473 14.0985 11.6797 7.31101 22.5547C0.50476 33.4297 -1.65149 46.2922 1.23601 58.7985C4.12351 71.286 11.6985 81.9172 22.5548 88.7047C30.2048 93.486 38.9798 96.0172 47.961 96.0172H48.5423C57.486 95.9047 66.186 93.3172 73.7235 88.5547C75.9173 87.1672 76.5548 84.2797 75.1673 82.086C73.7798 79.8922 70.8923 79.2547 68.6985 80.6422C62.6423 84.486 55.6298 86.5672 48.4298 86.661C41.0423 86.7547 33.8235 84.711 27.5235 80.7922C18.7673 75.3172 12.6735 66.7672 10.3673 56.7172C8.06101 46.6672 9.78601 36.3172 15.261 27.561C26.5485 9.50473 50.436 3.99223 68.4923 15.2797C74.7923 19.2172 79.7798 24.8235 82.9298 31.4985C86.0048 38.0047 87.2048 45.2235 86.3985 52.3485C86.1173 54.9172 87.9548 57.2422 90.5423 57.5235C93.111 57.8047 95.436 55.9672 95.7173 53.3797C96.711 44.511 95.211 35.5485 91.4048 27.4672Z" fill="#00C58A"/>
</svg>
