<svg width="96" height="96" viewBox="0 0 96 96" fill="none" xmlns="http://www.w3.org/2000/svg">
<g clip-path="url(#clip0)">
<path d="M83.0668 0H12.9401C5.79578 0 0.00390625 5.79164 0.00390625 12.9362V83.0633C0.00390625 90.2079 5.79554 95.9995 12.9401 95.9995H47.5262L47.5852 61.6945H38.6728C37.5145 61.6945 36.5744 60.7579 36.57 59.5997L36.5272 48.5418C36.5228 47.3772 37.4657 46.4308 38.6302 46.4308H47.5265V35.746C47.5265 23.3464 55.0994 16.5948 66.1606 16.5948H75.2372C76.3985 16.5948 77.3402 17.5362 77.3402 18.6978V28.0219C77.3402 29.1829 76.3992 30.1242 75.2384 30.1249L69.6682 30.1275C63.6527 30.1275 62.4879 32.9859 62.4879 37.1809V46.431H75.7059C76.9654 46.431 77.9425 47.5308 77.7941 48.7816L76.4835 59.8395C76.3581 60.8977 75.4608 61.695 74.3953 61.695H62.5469L62.4879 96H83.0672C90.2116 96 96.0032 90.2084 96.0032 83.064V12.9362C96.003 5.79164 90.2113 0 83.0668 0Z" fill="white"/>
</g>
<defs>
<clipPath id="clip0">
<rect width="96" height="96" fill="white"/>
</clipPath>
</defs>
</svg>
