<svg width="80" height="80" viewBox="0 0 80 80" fill="none" xmlns="http://www.w3.org/2000/svg">
<circle cx="40" cy="40" r="40" fill="#00C58A"/>
<path d="M21.9544 20.1348C21.953 20.1348 21.9514 20.1348 21.95 20.1348C21.4582 20.1348 20.9956 20.3265 20.6463 20.6749C20.2932 21.0272 20.0986 21.4962 20.0986 21.9956V49.898C20.0986 50.9211 20.9343 51.7556 21.9617 51.7582C26.293 51.7686 33.5495 52.6713 38.5555 57.91V28.7094C38.5555 28.3625 38.467 28.0367 38.2998 27.7671C34.191 21.1503 26.2954 20.1449 21.9544 20.1348Z" fill="white"/>
<path d="M59.9011 49.8981V21.9956C59.9011 21.4962 59.7066 21.0272 59.3534 20.6749C59.0041 20.3265 58.5412 20.1348 58.0499 20.1348C58.0483 20.1348 58.0467 20.1348 58.0453 20.1348C53.7045 20.1451 45.8088 21.1504 41.7 27.7672C41.5328 28.0369 41.4443 28.3627 41.4443 28.7095V57.91C46.4504 52.6713 53.7069 51.7685 58.0382 51.7582C59.0654 51.7556 59.9011 50.9211 59.9011 49.8981Z" fill="white"/>
<path d="M64.1391 26.5703H62.7899V49.8988C62.7899 52.5112 60.6614 54.6415 58.0449 54.648C54.3711 54.6567 48.3135 55.3751 44.0234 59.4355C51.4432 57.6188 59.2649 58.7997 63.7226 59.8156C64.2792 59.9423 64.8543 59.8114 65.3003 59.456C65.7446 59.1014 65.9996 58.5714 65.9996 58.0026V28.4308C65.9997 27.4049 65.1649 26.5703 64.1391 26.5703Z" fill="white"/>
<path d="M17.2097 49.8988V26.5703H15.8605C14.8348 26.5703 14 27.4049 14 28.4308V58.0021C14 58.5711 14.2549 59.1009 14.6993 59.4554C15.1449 59.8107 15.7195 59.9422 16.277 59.8151C20.7346 58.799 28.5565 57.6183 35.9759 59.4349C31.686 55.3747 25.6284 54.6565 21.9546 54.6478C19.3383 54.6415 17.2097 52.5112 17.2097 49.8988Z" fill="white"/>
</svg>
