<svg width="328" height="107" viewBox="0 0 328 107" fill="none" xmlns="http://www.w3.org/2000/svg">
<path d="M317.783 65.3925L326.882 71.4232C323.929 75.7479 316.865 83.1674 304.654 83.1674C289.489 83.1674 278.195 71.5026 278.195 56.6638C278.195 40.8727 289.608 30.1602 303.377 30.1602C317.225 30.1602 324.009 41.1107 326.204 47.0225L327.401 50.0379L291.724 64.718C294.437 70.0346 298.668 72.7326 304.654 72.7326C310.64 72.7326 314.79 69.7965 317.783 65.3925ZM289.808 55.8306L313.633 45.9909C312.316 42.6978 308.405 40.3569 303.736 40.3569C297.79 40.3569 289.529 45.5941 289.808 55.8306Z" fill="#FF302F"/>
<path d="M260.995 3.13867H272.488V80.745H260.995V3.13867Z" fill="#20B15A"/>
<path d="M242.877 32.222H253.971V79.3571C253.971 98.9174 242.358 106.972 228.63 106.972C215.7 106.972 207.918 98.3223 205.004 91.2996L215.181 87.0939C217.017 91.4186 221.446 96.5368 228.63 96.5368C237.449 96.5368 242.877 91.1012 242.877 80.9441V77.1352H242.478C239.844 80.3093 234.815 83.166 228.43 83.166C215.101 83.166 202.889 71.6203 202.889 56.7418C202.889 41.7839 215.101 30.1191 228.43 30.1191C234.776 30.1191 239.844 32.9361 242.478 36.0309H242.877V32.222ZM243.675 56.7418C243.675 47.3782 237.409 40.5539 229.428 40.5539C221.366 40.5539 214.582 47.3782 214.582 56.7418C214.582 65.9863 221.366 72.6915 229.428 72.6915C237.409 72.7312 243.675 65.9863 243.675 56.7418Z" fill="#3686F7"/>
<path d="M139.795 56.5433C139.795 71.8186 127.823 83.0469 113.136 83.0469C98.4504 83.0469 86.478 71.7789 86.478 56.5433C86.478 41.1886 98.4504 30 113.136 30C127.823 30 139.795 41.1886 139.795 56.5433ZM128.142 56.5433C128.142 47.021 121.198 40.4745 113.136 40.4745C105.075 40.4745 98.1311 47.021 98.1311 56.5433C98.1311 65.9862 105.075 72.6121 113.136 72.6121C121.198 72.6121 128.142 65.9862 128.142 56.5433Z" fill="#FF302F"/>
<path d="M198.02 56.6638C198.02 71.939 186.048 83.1674 171.362 83.1674C156.675 83.1674 144.703 71.939 144.703 56.6638C144.703 41.3091 156.675 30.1602 171.362 30.1602C186.048 30.1602 198.02 41.2694 198.02 56.6638ZM186.327 56.6638C186.327 47.1415 179.383 40.595 171.322 40.595C163.26 40.595 156.316 47.1415 156.316 56.6638C156.316 66.1067 163.26 72.7326 171.322 72.7326C179.423 72.7326 186.327 66.067 186.327 56.6638Z" fill="#FFBA40"/>
<path d="M42.6591 71.5413C25.9377 71.5413 12.848 58.1308 12.848 41.5065C12.848 24.8822 25.9377 11.4717 42.6591 11.4717C51.6783 11.4717 58.2631 15.0029 63.1318 19.526L71.1533 11.5511C64.3689 5.08389 55.3099 0.164062 42.6591 0.164062C19.752 0.164062 0.476562 18.7325 0.476562 41.5065C0.476562 64.2805 19.752 82.8489 42.6591 82.8489C55.0305 82.8489 64.3689 78.802 71.6721 71.2635C79.1747 63.8044 81.4894 53.33 81.4894 44.8393C81.4894 42.181 81.1701 39.4433 80.811 37.4199H42.6591V48.4498H69.8363C69.0382 55.3534 66.8432 60.0749 63.6107 63.2887C59.6997 67.2166 53.514 71.5413 42.6591 71.5413Z" fill="#3686F7"/>
</svg>
