<svg width="96" height="96" viewBox="0 0 96 96" fill="none" xmlns="http://www.w3.org/2000/svg">
<path d="M72 0H24C10.8012 0 0 10.7965 0 24V72C0 85.1988 10.8012 96 24 96H72C85.1988 96 96 85.1988 96 72V24C96 10.7965 85.1988 0 72 0ZM48 67.9992C36.9527 67.9992 27.9996 59.0423 27.9996 48C27.9996 36.9527 36.9527 27.9996 48 27.9996C59.0423 27.9996 68.0004 36.9527 68.0004 48C68.0004 59.0423 59.0423 67.9992 48 67.9992ZM74.0004 27.9996C70.6835 27.9996 68.0004 25.3127 68.0004 21.9996C68.0004 18.6865 70.6835 15.9996 74.0004 15.9996C77.3173 15.9996 80.0004 18.6865 80.0004 21.9996C80.0004 25.3127 77.3173 27.9996 74.0004 27.9996Z" fill="#06E0A1"/>
<mask id="mask0" mask-type="alpha" maskUnits="userSpaceOnUse" x="0" y="0" width="96" height="96">
<path d="M72 0H24C10.8012 0 0 10.7965 0 24V72C0 85.1988 10.8012 96 24 96H72C85.1988 96 96 85.1988 96 72V24C96 10.7965 85.1988 0 72 0ZM48 67.9992C36.9527 67.9992 27.9996 59.0423 27.9996 48C27.9996 36.9527 36.9527 27.9996 48 27.9996C59.0423 27.9996 68.0004 36.9527 68.0004 48C68.0004 59.0423 59.0423 67.9992 48 67.9992ZM74.0004 27.9996C70.6835 27.9996 68.0004 25.3127 68.0004 21.9996C68.0004 18.6865 70.6835 15.9996 74.0004 15.9996C77.3173 15.9996 80.0004 18.6865 80.0004 21.9996C80.0004 25.3127 77.3173 27.9996 74.0004 27.9996Z" fill="white"/>
</mask>
<g mask="url(#mask0)">
</g>
</svg>
