<svg width="96" height="96" viewBox="0 0 96 96" fill="none" xmlns="http://www.w3.org/2000/svg">
<circle cx="48" cy="48" r="47" stroke="#007755" stroke-width="2"/>
<path d="M49.0625 69H45.3125V35.1875H49.0625V69ZM44.6562 25.4062C44.6562 24.6979 44.8854 24.1042 45.3438 23.625C45.8021 23.125 46.4271 22.875 47.2188 22.875C48.0104 22.875 48.6354 23.125 49.0938 23.625C49.5729 24.1042 49.8125 24.6979 49.8125 25.4062C49.8125 26.1146 49.5729 26.7083 49.0938 27.1875C48.6354 27.6667 48.0104 27.9062 47.2188 27.9062C46.4271 27.9062 45.8021 27.6667 45.3438 27.1875C44.8854 26.7083 44.6562 26.1146 44.6562 25.4062Z" fill="#007755"/>
</svg>
