<svg width="23" height="23" viewBox="0 0 23 23" fill="none" xmlns="http://www.w3.org/2000/svg">
<circle cx="11.5" cy="11.5" r="11" stroke="#BCBCBC"/>
<path d="M12.6201 18H10.9941V8.49023H12.6201V18ZM10.8623 5.96777C10.8623 5.7041 10.9414 5.48145 11.0996 5.2998C11.2637 5.11816 11.5039 5.02734 11.8203 5.02734C12.1367 5.02734 12.377 5.11816 12.541 5.2998C12.7051 5.48145 12.7871 5.7041 12.7871 5.96777C12.7871 6.23145 12.7051 6.45117 12.541 6.62695C12.377 6.80273 12.1367 6.89062 11.8203 6.89062C11.5039 6.89062 11.2637 6.80273 11.0996 6.62695C10.9414 6.45117 10.8623 6.23145 10.8623 5.96777Z" fill="#BCBCBC"/>
</svg>
