<svg width="20" height="28" viewBox="0 0 20 28" fill="none" xmlns="http://www.w3.org/2000/svg">
<path d="M10 0C4.47937 0 0 4.03188 0 9C0 17 10 28 10 28C10 28 20 17 20 9C20 4.03188 15.5206 0 10 0ZM10 14C9.20887 14 8.43552 13.7654 7.77772 13.3259C7.11992 12.8864 6.60723 12.2616 6.30448 11.5307C6.00173 10.7998 5.92252 9.99556 6.07686 9.21964C6.2312 8.44372 6.61216 7.73098 7.17157 7.17157C7.73098 6.61216 8.44372 6.2312 9.21964 6.07686C9.99556 5.92252 10.7998 6.00173 11.5307 6.30448C12.2616 6.60723 12.8864 7.11992 13.3259 7.77772C13.7654 8.43552 14 9.20887 14 10C13.9988 11.0605 13.577 12.0773 12.8271 12.8271C12.0773 13.577 11.0605 13.9988 10 14Z" fill="#00C58A"/>
</svg>
