<svg width="328" height="328" viewBox="0 0 328 328" fill="none" xmlns="http://www.w3.org/2000/svg">
<path d="M163.999 0C128.656 0 99.9106 28.7536 99.9106 64.0959V97.3024C99.9106 132.647 128.656 161.401 163.999 161.401C199.344 161.401 228.087 132.647 228.087 97.3024V64.0959C228.087 28.7536 199.344 0 163.999 0Z" fill="#585858"/>
<path d="M305.337 244.925C284.815 209.953 252.012 184.025 212.973 171.918C212.067 171.638 211.089 171.876 210.414 172.543C192.254 190.449 169.687 204.419 164.046 207.793C158.024 203.944 132.658 187.41 117.578 172.543C116.906 171.876 115.919 171.638 115.019 171.918C75.9746 184.028 43.1749 209.956 22.6606 244.928C22.1909 245.728 22.1909 246.723 22.6606 247.523C51.792 297.164 105.948 328.001 163.996 328.001C222.046 328.001 276.205 297.164 305.337 247.523C305.809 246.72 305.809 245.726 305.337 244.925ZM251.162 264.044C251.162 265.458 249.816 266.539 248.404 266.539H231.047C229.632 266.539 228.089 267.754 228.089 269.171V287.122C228.089 288.533 227.334 289.612 225.919 289.612H210.33C208.916 289.612 207.583 288.533 207.583 287.122V269.171C207.578 267.757 206.612 266.539 205.198 266.539H187.092C185.678 266.539 184.508 265.455 184.508 264.044V248.588C184.508 247.174 185.678 246.033 187.092 246.033H205.198C206.612 246.033 207.578 244.878 207.578 243.461V225.49C207.578 224.075 208.911 222.96 210.325 222.96H225.746C227.158 222.96 228.087 224.075 228.087 225.49V243.514C228.087 244.931 229.456 246.03 230.873 246.03H248.404C249.816 246.03 251.162 247.227 251.162 248.641V264.044Z" fill="#585858"/>
</svg>
