<svg width="328" height="326" viewBox="0 0 328 326" fill="none" xmlns="http://www.w3.org/2000/svg">
<path d="M171.699 214.972C175.414 214.972 178.453 211.952 178.453 208.26V205.138C178.453 201.446 175.414 198.426 171.699 198.426H58.9103C55.1957 198.426 52.1565 201.446 52.1565 205.138V208.26C52.1565 211.952 55.1957 214.972 58.9103 214.972H171.699Z" fill="white"/>
<path d="M242.514 76.5914C231.91 66.0525 219.584 57.7959 205.806 51.9895L205.739 51.9559C201.248 50.0764 196.047 51.6874 193.413 55.7486L185.579 67.8649C183.62 67.1937 181.527 66.7909 179.365 66.6231C178.724 66.5895 178.048 66.556 177.373 66.556C175.55 66.556 173.76 66.7573 172.038 67.1265L185.849 45.7132L190.138 39.0676C193.143 34.4023 191.792 28.1596 187.064 25.1724L150.155 1.57747C148.466 0.503449 146.575 0 144.684 0C141.341 0 138.065 1.6446 136.141 4.63173L71.9452 104.113C68.9398 108.779 70.2905 115.021 75.0182 118.008L82.0085 122.472L78.8342 127.406L75.6599 132.34L73.6675 135.428C70.662 140.093 72.0128 146.336 76.7405 149.323L82.7514 153.149C87.4453 156.136 93.7264 154.793 96.7318 150.095L98.7242 147.007L101.898 142.073L105.072 137.139L111.961 141.536C113.65 142.61 115.541 143.113 117.432 143.113C120.775 143.113 124.051 141.469 125.976 138.482L152.316 97.6352C152.856 100.052 153.734 102.334 154.95 104.449C155.996 106.295 157.246 108.006 158.698 109.517C163.561 114.618 170.483 117.773 178.149 117.538C191.691 117.135 202.699 106.194 203.071 92.735C203.172 89.4458 202.632 86.2908 201.585 83.3708C208.643 87.197 215.194 92.0637 221.037 97.8701C237.111 113.846 245.958 135.058 245.958 157.647C245.958 180.235 237.111 201.447 221.037 217.423C211.041 227.358 199.019 234.507 185.883 238.501C184.904 238.803 183.891 238.937 182.877 238.937H149.649C144.043 238.937 139.518 234.44 139.518 228.868V226.619H91.1265V238.937V254.846V271.929C92.1733 271.862 93.254 271.828 94.3005 271.828H160.86H172.982H230.829H238.799H239.576C251.125 269.781 259.938 259.745 259.938 247.663C259.938 240.212 256.596 233.533 251.327 229.035C257.811 220.913 263.181 211.985 267.266 202.386C273.277 188.222 276.35 173.186 276.35 157.713C276.35 142.24 273.311 127.204 267.266 113.04C261.424 99.3808 253.117 87.0967 242.514 76.5914ZM177.373 101.26C173.084 101.26 169.504 98.3739 168.458 94.4135C168.255 93.6751 168.154 92.8696 168.154 92.064C168.154 87.533 171.463 83.7739 175.82 83.0355C176.326 82.9348 176.867 82.9013 177.407 82.9013C182.506 82.9013 186.626 86.996 186.626 92.064C186.626 97.1321 182.472 101.26 177.373 101.26ZM238.799 255.484C237.718 255.987 236.503 256.256 235.219 256.256C231.808 256.256 228.87 254.309 227.486 251.456C226.912 250.315 226.608 249.006 226.608 247.663C226.608 242.931 230.458 239.071 235.253 239.071C236.536 239.071 237.752 239.339 238.833 239.843C239.407 240.111 239.981 240.447 240.487 240.816C242.547 242.394 243.898 244.844 243.898 247.629C243.864 251.154 241.771 254.141 238.799 255.484Z" fill="white"/>
<path d="M91.1262 283.71C69.0411 285.321 51.65 303.647 51.65 326H228.668C234.274 326 238.799 321.502 238.799 315.931V299.787V283.609H94.3005C93.2199 283.609 92.173 283.643 91.1262 283.71Z" fill="white"/>
</svg>
