<svg width="328" height="328" viewBox="0 0 328 328" fill="none" xmlns="http://www.w3.org/2000/svg">
<g clip-path="url(#clip0)">
<path d="M135.048 228.244H173.632V257.182H135.048V228.244Z" fill="white"/>
<path d="M321.639 222.679L252.985 141.43H221.862V102.846H241.154V122.138H308.676V64.2623H241.154V83.5543H221.862V3.29492L145.209 24.8789C139.944 19.4301 132.569 16.0322 124.412 16.0322C108.455 16.0322 95.4737 29.0138 95.4737 44.9702C95.4737 60.9267 108.455 73.9083 124.412 73.9083C140.368 73.9083 153.35 60.9267 153.35 44.9702C153.35 44.1908 153.31 43.4211 153.249 42.6571L202.57 28.7694V141.43H101.809L64.665 55.6381C59.3217 43.2982 47.1799 35.3242 33.7321 35.3242C10.2241 35.3242 -6.08537 58.8476 2.17227 80.8656L50.2043 208.953H217.61L267.543 263.588C279.114 278.074 300.27 280.561 314.889 269.173C329.294 257.953 332.259 237.532 321.639 222.679Z" fill="white"/>
<path d="M210.287 276.475H98.3932L86.818 305.413H57.8799V324.705H250.8V305.413H221.862L210.287 276.475Z" fill="white"/>
</g>
<defs>
<clipPath id="clip0">
<rect width="328" height="328" fill="white"/>
</clipPath>
</defs>
</svg>
