<svg width="329" height="413" viewBox="0 0 329 413" fill="none" xmlns="http://www.w3.org/2000/svg">
<path d="M152.591 24.8758C150.238 25.2948 50.0926 28.6466 30.7434 94.636C11.1328 160.416 0.673803 259.295 18.1926 307.688C35.7115 355.87 83.2999 396.93 192.335 389.598C297.709 382.685 300.847 333.036 312.875 289.043C324.903 245.05 316.274 205.247 316.274 205.247C316.274 205.247 322.027 -11.366 152.591 24.8758Z" fill="white" stroke="black" stroke-width="0.25" stroke-miterlimit="10"/>
<path d="M152.591 24.8758C150.238 25.2948 50.0926 28.6466 30.7434 94.636C11.1328 160.416 0.673803 259.295 18.1926 307.688C35.7115 355.87 83.2999 396.93 192.335 389.598C297.709 382.685 300.847 333.036 312.875 289.043C324.903 245.05 316.274 205.247 316.274 205.247C316.274 205.247 322.027 -11.366 152.591 24.8758Z" fill="white" stroke="black" stroke-width="0.25" stroke-miterlimit="10"/>
<path opacity="0.4" d="M311.543 253.46C302.396 244.519 290.373 237.696 277.306 234.402C270.772 232.755 263.977 232.05 257.443 232.52C249.341 233.226 241.239 234.638 233.137 235.579C201.774 240.049 170.412 245.46 138.526 246.401C122.322 246.872 106.118 246.166 89.9145 244.99C82.5965 244.519 75.0172 244.049 67.6993 242.166C60.9041 240.284 53.8475 237.461 46.5296 237.931C33.9846 239.108 22.7463 245.931 14.1216 253.93C13.0762 254.871 12.0308 256.048 10.9854 256.989C12.2921 272.517 14.9057 286.398 18.5646 297.692C36.0754 351.805 83.6419 397.92 192.627 389.685C297.953 381.921 301.089 326.16 313.111 276.752C314.679 270.635 315.725 264.753 316.77 258.871C315.202 256.989 313.373 255.107 311.543 253.46Z" fill="white" stroke="black" stroke-width="0.25" stroke-miterlimit="10"/>
<path d="M249.284 137.191C229.422 109.193 188.127 129.427 158.594 130.368C128.8 129.663 98.2215 109.429 78.3586 137.191C40.2008 190.599 60.8478 234.596 60.8478 234.596L65.2908 242.595L163.822 239.537L262.352 242.595L266.795 234.596C266.795 234.596 287.181 190.599 249.284 137.191Z" fill="#F4F4F4" stroke="#C4C4C4" stroke-width="2" stroke-miterlimit="10"/>
<path d="M262.875 184.483C257.909 161.661 235.171 135.546 207.206 136.722C196.491 137.192 179.503 139.545 172.708 148.015C168.787 153.191 169.571 158.838 170.094 164.72C170.617 169.896 171.139 176.719 167.48 181.189C163.56 185.895 155.981 184.483 153.367 179.542C150.231 172.955 152.583 165.896 152.583 159.073C152.322 152.721 149.447 146.368 144.481 141.663C137.686 135.546 125.925 137.663 117.3 138.134C101.096 138.839 85.9379 146.133 75.745 157.426C68.9498 164.72 64.5068 175.072 62.4159 184.483C52.7458 228.715 84.6311 263.771 84.6311 263.771H240.66C240.66 263.771 272.545 228.715 262.875 184.483Z" fill="#E7E5E6" stroke="#C4C4C4" stroke-width="2" stroke-miterlimit="10"/>
<path d="M265.488 216.244C264.704 173.423 194.4 184.011 178.196 189.422C171.923 191.54 155.458 191.54 148.924 189.422C132.982 184.011 62.6773 173.188 61.8932 216.244C61.1091 257.888 83.0629 304.002 153.106 307.531C157.026 308.002 160.947 308.002 163.56 308.002C166.435 308.002 170.094 308.002 174.014 307.531C244.319 304.002 266.272 257.888 265.488 216.244Z" fill="#F4F4F4" stroke="#C4C4C4" stroke-width="2" stroke-miterlimit="10"/>
<path opacity="0.3" d="M265.488 216.244C264.704 173.423 194.4 184.011 178.196 189.422C171.923 191.54 155.458 191.54 148.924 189.422C132.982 184.011 62.6773 173.188 61.8932 216.244C61.1091 257.888 83.0629 304.002 153.106 307.531C157.026 308.002 160.947 308.002 163.56 308.002C166.435 308.002 170.094 308.002 174.014 307.531C244.319 304.002 266.272 257.888 265.488 216.244Z" fill="#F4F4F4" stroke="#C4C4C4" stroke-width="2" stroke-miterlimit="10"/>
<mask id="mask0" style="mask-type:alpha" maskUnits="userSpaceOnUse" x="74" y="194" width="84" height="95">
<path d="M87.5056 194.833C87.5056 194.833 78.0969 194.597 75.222 208.243C72.3471 221.889 69.7335 283.767 148.14 288.473C148.14 288.473 160.424 290.12 156.503 287.296C152.583 284.473 118.084 279.062 108.153 258.357C88.2897 217.184 117.561 192.95 87.5056 194.833Z" fill="url(#paint0_linear)"/>
</mask>
<g mask="url(#mask0)">
</g>
<path d="M117.619 330.475C98.0175 329.534 88.6088 317.77 79.9841 305.065C77.3705 301.066 71.3594 299.183 69.5299 294.713C67.9618 292.831 66.3936 290.949 63.7801 290.243C63.5187 290.008 63.2574 289.537 63.7801 289.537C65.0869 288.831 64.8255 280.832 64.0414 278.244C62.4733 274.244 61.4279 269.774 58.0303 266.48C57.7689 266.245 57.7689 266.009 58.0303 265.774C59.5984 264.127 60.3825 261.539 60.3825 258.716C60.1211 256.834 59.8598 255.187 59.8598 253.54C59.0757 250.716 57.7689 248.364 55.6781 247.187C55.4167 246.952 55.4167 246.717 55.6781 246.481C57.5076 244.364 58.8144 242.011 59.3371 239.423C59.3371 236.6 55.1554 229.541 55.1554 229.306C52.0191 219.66 33.9857 222.718 33.9857 222.718C22.7474 221.777 17.7817 225.777 19.0885 242.952C19.6112 251.657 19.8725 273.068 27.4518 291.184C35.0311 309.065 50.1897 323.652 69.2685 344.827C107.165 387.412 156.561 374.942 156.561 374.942V330.475C137.482 331.652 117.619 330.475 117.619 330.475Z" fill="white" stroke="#007755" stroke-miterlimit="10"/>
<path d="M117.619 330.475C98.0175 329.534 88.6088 317.77 79.9841 305.065C77.3705 301.066 71.3594 299.183 69.5299 294.713C67.9618 292.831 66.3936 290.949 63.7801 290.243C63.5187 290.008 63.2574 289.537 63.7801 289.537C65.0869 288.831 64.8255 280.832 64.0414 278.244C62.4733 274.244 61.4279 269.774 58.0303 266.48C57.7689 266.245 57.7689 266.009 58.0303 265.774C59.5984 264.127 60.3825 261.539 60.3825 258.716C60.1211 256.834 59.8598 255.187 59.8598 253.54C59.0757 250.716 57.7689 248.364 55.6781 247.187C55.4167 246.952 55.4167 246.717 55.6781 246.481C57.5076 244.364 58.8144 242.011 59.3371 239.423C59.3371 236.6 55.1554 229.541 55.1554 229.306C52.0191 219.66 33.9857 222.718 33.9857 222.718C22.7474 221.777 17.7817 225.777 19.0885 242.952C19.6112 251.657 19.8725 273.068 27.4518 291.184C35.0311 309.065 50.1897 323.652 69.2685 344.827C107.165 387.412 156.561 374.942 156.561 374.942V330.475C137.482 331.652 117.619 330.475 117.619 330.475ZM53.0646 233.071C54.6327 234.247 54.6327 238.011 52.0191 238.247C50.7124 238.247 49.4056 237.776 48.3602 237.07C47.3148 236.364 45.4853 235.894 44.7012 234.718C43.6558 233.071 45.7466 232.6 47.5761 232.365C49.4056 231.894 51.7578 231.894 53.0646 233.071ZM28.7586 225.071C31.8948 223.424 35.8152 223.424 39.2128 223.66C41.3036 223.66 44.9626 223.66 46.008 225.542C46.792 226.953 44.7012 227.894 42.8717 228.365C38.4287 230.247 32.4175 228.365 28.4972 226.012C28.4972 225.542 28.4972 225.071 28.7586 225.071ZM21.4407 238.482C19.6112 235.894 19.8725 230.247 24.0542 229.541C29.0199 228.6 34.247 232.129 36.3379 235.894C36.8606 235.894 36.8606 236.364 36.5992 236.6V236.835C36.8606 237.306 36.3379 237.541 35.8152 237.306C35.5538 237.07 35.0311 236.835 34.7697 236.6C32.9403 236.364 30.8494 236.129 29.0199 236.129C26.145 236.129 24.0542 237.07 21.9634 238.482C21.9634 238.717 21.702 238.717 21.4407 238.482Z" fill="white" stroke="#007755" stroke-miterlimit="10"/>
<path opacity="0.6" d="M20.6561 248.835C21.4402 246.482 23.0083 244.129 25.8832 243.659C28.4968 243.188 31.1103 243.659 33.7239 244.364C32.6785 242.953 31.3717 241.776 29.8036 241.07C27.7127 240.129 25.6219 240.6 23.531 241.07C21.7016 241.306 20.3948 240.6 19.3494 239.424C19.088 239.188 18.8267 238.718 18.8267 238.482C18.8267 239.894 18.8267 241.541 19.088 243.188C19.3494 246.011 19.3494 250.482 19.8721 255.893C19.6107 253.305 19.8721 250.952 20.6561 248.835Z" fill="white" stroke="#007755" stroke-miterlimit="10"/>
<path opacity="0.6" d="M32.9403 302.006C32.9403 301.771 32.9403 301.771 33.2016 301.536C29.804 295.183 29.0199 288.125 31.1108 281.067C31.8948 278.243 32.6789 274.479 35.5538 272.361C38.4287 270.244 42.349 268.832 45.2239 266.715C43.1331 266.95 41.0422 267.891 38.9514 268.597C36.5992 269.538 33.9857 270.009 32.9403 272.361C31.8948 274.714 31.6335 278.479 29.5426 280.126C27.1905 282.243 24.8383 280.831 23.0088 278.479C24.0542 282.714 25.361 286.949 27.1905 290.948C28.7586 294.948 30.8494 298.477 33.2016 302.242C32.9403 302.242 32.9403 302.242 32.9403 302.006Z" fill="white" stroke="#007755" stroke-miterlimit="10"/>
<path opacity="0.6" d="M44.1785 298.477C42.0877 300.595 41.565 302.948 40.7809 305.536C40.2582 306.947 39.7355 308.594 37.906 309.065C37.6447 309.065 37.3833 309.065 37.3833 309.065C39.7355 312.359 42.349 315.653 45.224 318.947C43.3945 314.947 41.565 311.182 41.8263 306.947C42.0877 301.771 45.7467 298.242 49.9283 295.184C47.8375 295.654 45.7467 296.831 44.1785 298.477Z" fill="white" stroke="#007755" stroke-miterlimit="10"/>
<path opacity="0.5" d="M117.618 330.476C101.676 329.77 92.267 321.535 84.6877 311.889H84.4263C79.4606 310.477 74.7562 308.36 71.0972 313.065C68.2223 316.83 66.6542 321.3 66.6542 326.005C66.6542 328.123 67.1769 331.417 65.8702 333.299C64.8247 334.946 62.7339 335.417 60.6431 335.652C63.2566 338.475 66.1315 341.534 69.0064 344.828C107.164 387.413 156.56 374.943 156.56 374.943V330.476C137.481 331.652 117.618 330.476 117.618 330.476Z" fill="white" stroke="#007755" stroke-miterlimit="10"/>
<path d="M71.0976 333.533C66.1319 341.297 41.3032 315.417 41.3032 307.888C33.4626 306.947 27.7128 291.418 29.0195 283.654C22.747 279.419 19.8721 261.773 19.8721 261.773L16.2132 265.067L11.5088 280.831L21.963 314.475C49.4052 412.115 165.708 392.117 165.708 392.117V354.943C127.812 356.59 94.8809 348.591 71.0976 333.533Z" fill="white" stroke="#007755" stroke-miterlimit="10"/>
<path opacity="0.5" d="M38.6897 307.888C40.5192 309.535 42.0873 311.417 43.1327 313.534C44.4395 315.887 45.7463 318.24 47.5758 320.357C48.8825 321.769 50.4507 322.945 51.7574 324.122C46.0076 318.24 41.3033 311.417 41.3033 308.123C39.4738 307.888 37.6443 306.711 36.0762 305.064C36.8602 306.006 37.9057 306.947 38.6897 307.888Z" fill="white" stroke="#007755" stroke-miterlimit="10"/>
<path opacity="0.5" d="M72.143 342.944C74.2338 345.532 76.8474 347.65 80.7677 348.12C83.6426 348.591 86.5175 348.356 89.1311 348.826C94.3581 349.767 97.7558 353.532 102.721 354.708C102.983 354.708 103.244 354.943 102.983 355.179C106.642 355.649 110.301 354.943 113.698 356.12C117.619 357.531 120.755 360.355 124.675 361.061C129.641 362.002 133.561 359.884 138.266 359.884C142.709 359.884 146.106 362.708 150.288 363.413C155.254 364.354 159.958 362.472 164.924 363.178C165.447 363.178 165.708 363.178 166.231 363.413V355.414C128.073 356.59 95.1422 348.591 71.3589 333.533C70.0522 335.651 67.1773 335.18 64.041 333.533C65.6091 334.945 67.1773 336.357 68.484 338.003C69.7908 339.65 70.8362 341.297 72.143 342.944Z" fill="white" stroke="#007755" stroke-miterlimit="10"/>
<path opacity="0.5" d="M23.531 276.832C25.6219 282.478 27.19 288.36 30.0649 293.771C30.3262 294.242 30.5876 294.713 30.8489 295.418C29.5422 291.183 29.0195 286.948 29.5422 283.89C25.8832 281.302 23.531 274.479 21.9629 269.303C22.2242 271.655 22.4856 274.244 23.531 276.832Z" fill="white" stroke="#007755" stroke-miterlimit="10"/>
<g opacity="0.6">
<path opacity="0.6" d="M138.788 362.473C140.879 363.885 142.97 365.061 145.584 365.532C146.629 365.767 147.413 365.767 148.459 365.767C147.936 365.532 147.152 365.296 146.629 365.061C144.8 364.12 143.232 362.473 141.402 361.532C139.573 360.591 138.266 360.591 136.959 361.532C137.482 361.767 138.266 362.238 138.788 362.473Z" fill="white" stroke="#007755" stroke-miterlimit="10"/>
<path opacity="0.6" d="M125.72 363.414C122.061 362.708 120.493 359.884 117.357 358.237C115.789 357.296 112.653 356.59 111.346 358.473C111.346 358.237 111.346 358.237 111.085 358.237C111.085 358.237 110.562 358.708 110.823 358.708C111.346 358.943 112.13 358.943 112.914 358.943C114.482 359.179 116.312 360.355 117.618 361.296C120.232 363.178 122.061 364.12 125.459 363.884C125.459 364.12 125.982 363.414 125.72 363.414Z" fill="white" stroke="#007755" stroke-miterlimit="10"/>
<path opacity="0.6" d="M100.369 356.592C98.278 355.886 96.7098 354.945 95.1417 353.769C94.0963 353.063 93.3122 352.122 92.0054 351.887C91.7441 351.887 91.7441 352.122 91.4827 352.122C90.6987 353.063 92.2668 354.475 93.0509 355.181C94.8804 356.827 97.4939 357.298 99.8461 357.063C100.369 357.063 100.63 356.592 100.369 356.592Z" fill="white" stroke="#007755" stroke-miterlimit="10"/>
<path opacity="0.6" d="M78.6766 347.886C74.2336 346.71 71.0973 343.651 69.2678 339.652C69.2678 339.417 68.7451 339.887 68.7451 339.887C69.0065 342.005 69.7905 343.887 71.3587 345.769C73.1881 347.886 75.279 348.592 78.1539 348.828C78.4152 348.828 79.1993 348.122 78.6766 347.886Z" fill="white" stroke="#007755" stroke-miterlimit="10"/>
<path opacity="0.6" d="M54.1096 331.181C54.371 331.416 54.371 331.416 54.6324 331.652C55.9391 332.828 57.7686 334.946 59.8595 335.181C60.3822 335.181 61.1662 334.475 60.9049 334.005C60.6435 333.299 60.1208 332.828 59.3367 332.358C58.2913 331.652 57.5073 330.946 56.7232 330.475C55.9391 330.005 55.1551 329.299 54.371 328.828C53.5869 328.123 52.2802 327.652 51.7574 326.711C51.7574 326.711 51.7574 326.711 51.4961 326.711C51.7574 328.123 52.8029 329.77 54.1096 331.181Z" fill="white" stroke="#007755" stroke-miterlimit="10"/>
<path opacity="0.6" d="M38.1666 308.83C37.3825 307.889 36.3371 307.183 35.553 306.478C34.2463 305.301 33.4622 304.125 32.6781 302.713C31.11 300.596 30.3259 297.772 29.2805 295.42C29.2805 295.184 28.7578 295.655 28.7578 295.89C30.3259 301.066 32.1554 306.713 37.6439 309.536C37.9052 309.536 38.4279 309.066 38.1666 308.83Z" fill="white" stroke="#007755" stroke-miterlimit="10"/>
</g>
<path d="M211.184 330.475C230.786 329.534 240.194 317.77 248.819 305.065C251.433 301.066 257.444 299.183 259.273 294.713C260.841 292.831 262.41 290.949 265.023 290.243C265.284 290.008 265.546 289.537 265.023 289.537C263.716 288.831 263.978 280.832 264.762 278.244C266.33 274.244 267.375 269.774 270.773 266.48C271.034 266.245 271.034 266.009 270.773 265.774C269.205 264.127 268.421 261.539 268.421 258.716C268.682 256.834 268.943 255.187 268.943 253.54C269.727 250.716 271.034 248.364 273.125 247.187C273.386 246.952 273.386 246.717 273.125 246.481C271.296 244.364 269.989 242.011 269.466 239.423C269.466 236.6 273.648 229.541 273.648 229.306C276.784 219.66 294.817 222.718 294.817 222.718C306.056 221.777 311.021 225.777 309.715 242.952C309.192 251.657 308.931 273.068 301.351 291.184C293.772 309.065 278.613 323.652 259.535 344.827C221.638 387.412 172.242 374.942 172.242 374.942V330.475C191.321 331.652 211.184 330.475 211.184 330.475Z" fill="white" stroke="#007755" stroke-miterlimit="10"/>
<path d="M172.242 330.475V374.942C172.242 374.942 221.638 387.412 259.795 344.827C278.874 323.417 294.033 309.065 301.612 291.184C309.192 273.303 309.191 251.657 309.976 242.952C311.282 225.777 306.317 221.777 295.078 222.718C295.078 222.718 277.045 219.66 273.909 229.306C273.909 229.541 269.727 236.364 269.727 239.423C270.25 242.011 271.295 244.599 273.386 246.481C273.647 246.717 273.647 246.952 273.386 247.187C271.295 248.599 269.727 250.952 269.204 253.54C268.943 255.187 268.943 256.834 268.682 258.716C268.943 261.539 269.727 264.127 271.034 265.774C271.295 266.009 271.295 266.245 271.034 266.48C267.636 269.774 266.591 274.244 265.023 278.244C264.239 281.067 263.716 288.831 265.284 289.537C265.545 289.772 265.545 290.243 265.284 290.243C262.67 291.184 261.102 293.066 259.534 294.713C257.705 299.183 251.693 301.066 249.08 305.065C240.455 317.77 231.046 329.534 211.445 330.475C211.184 330.475 191.321 331.652 172.242 330.475ZM281.227 232.6C283.056 232.6 285.147 233.306 284.101 234.953C283.579 236.129 281.488 236.6 280.442 237.306C279.397 238.011 278.09 238.482 276.784 238.482C274.17 238.247 274.17 234.482 275.738 233.306C277.045 231.894 279.136 231.894 281.227 232.6ZM299.783 225.777C296.124 228.365 290.113 230.012 285.408 228.13C283.579 227.659 281.488 226.953 282.272 225.306C283.317 223.424 287.238 223.424 289.067 223.424C292.465 223.189 296.385 223.189 299.521 224.836C300.305 225.071 300.305 225.542 299.783 225.777ZM306.578 238.717C304.487 237.306 302.135 236.364 299.521 236.364C297.692 236.364 295.601 236.6 293.772 236.835C293.51 237.07 292.988 237.306 292.726 237.541C292.465 237.776 291.942 237.306 291.942 237.07V236.835C291.681 236.6 291.942 236.129 292.203 236.129C294.556 232.129 299.521 228.836 304.487 229.777C308.669 230.483 308.93 236.129 307.101 238.717C307.101 238.717 306.839 238.717 306.578 238.717Z" fill="white" stroke="#007755" stroke-miterlimit="10"/>
<path d="M257.444 333.534C262.41 341.298 287.238 315.418 287.238 307.889C295.079 306.948 300.829 288.596 299.261 280.832C307.363 273.303 308.408 266.01 308.408 266.01L315.465 273.774L310.499 309.065C283.057 406.705 162.833 391.883 162.833 391.883V355.18C200.991 356.591 233.922 348.592 257.444 333.534Z" fill="white"/>
<path opacity="0.5" d="M181.912 363.178C185.048 361.766 188.185 359.413 191.844 359.884C194.457 360.119 196.809 360.825 199.423 360.825C202.559 360.825 205.434 360.119 208.309 358.708C208.57 358.708 208.57 358.708 208.832 358.708C209.616 358.237 210.138 357.767 210.923 357.296C212.491 356.59 214.059 356.12 215.888 356.12C218.502 356.12 221.115 356.825 223.468 356.355C226.081 355.649 228.172 354.237 230.263 352.59C233.66 350.238 236.797 348.355 240.978 347.414C242.546 346.944 244.376 346.709 245.944 346.238C245.421 346.003 245.683 345.297 246.205 345.297C247.512 345.297 248.558 345.062 249.603 344.826C250.648 344.12 251.694 343.415 252.739 342.238C253.001 342.003 253.262 342.003 253.523 342.238C254.83 341.297 255.876 340.121 257.182 339.18C260.841 336.356 265.546 334.709 269.205 331.886C273.386 328.827 277.829 325.534 280.443 321.534C282.795 318.005 284.363 314.005 287.238 310.476C289.852 307.417 292.988 304.594 295.079 301.3C297.431 297.536 298.476 293.301 299.26 288.83C299.522 286.713 299.783 284.595 300.567 282.478C301.351 280.125 302.658 278.243 303.703 275.89C303.965 275.42 303.965 274.949 304.226 274.479C302.919 276.361 301.351 278.243 298.999 280.36C300.567 288.125 294.817 306.476 286.977 307.417C286.977 314.711 262.409 340.591 257.182 333.062C233.66 347.885 200.73 356.12 162.311 354.943V362.707C163.095 362.707 163.617 362.707 164.401 362.943C170.413 364.119 176.162 365.766 181.912 363.178Z" fill="white" stroke="#007755" stroke-miterlimit="10"/>
<g opacity="0.6">
<path d="M298.999 241.07C298.999 244.364 285.67 250.481 282.011 250.246C281.489 250.246 281.489 250.716 281.75 250.952C282.534 251.893 283.057 252.599 283.579 253.54C282.534 252.363 280.966 251.422 279.659 250.716C278.091 250.011 275.739 249.305 274.171 250.481C273.387 251.187 273.125 252.128 272.864 252.834C272.08 254.01 271.557 255.187 271.296 256.363C270.773 258.245 271.818 260.127 273.125 261.539C276.261 265.068 280.705 266.009 285.148 267.421C289.852 268.833 293.511 270.95 294.034 275.42C290.375 270.48 283.057 267.656 276.784 267.656C271.034 267.656 272.341 271.891 274.432 274.95C273.125 274.479 272.08 274.244 270.773 274.479C270.512 274.479 270.512 274.715 270.512 274.95C270.25 276.362 270.25 278.714 272.341 279.185C273.387 279.42 274.693 279.42 276 279.42C276.261 279.42 276.784 279.42 277.568 279.185C273.909 280.361 267.637 280.126 267.114 284.126C266.853 286.714 268.682 289.302 271.034 290.478C274.693 292.125 278.091 294.007 280.966 296.831C275.739 294.007 268.421 289.772 263.716 294.243C262.41 295.419 261.103 296.831 260.058 298.242C259.273 299.183 257.967 300.36 257.705 301.771C257.705 302.477 257.705 302.948 258.228 303.418C259.273 304.124 259.796 304.83 260.319 305.771C256.137 304.595 253.262 305.301 250.387 308.83C250.387 309.065 250.387 309.3 250.387 309.3C251.694 310.241 253.001 310.712 254.308 311.418C256.399 312.594 257.705 314.241 258.751 316.359C259.796 318.947 260.058 321.535 260.319 324.123V323.887C259.012 321.299 257.183 318.947 254.83 317.064C252.74 315.182 250.387 314.241 247.512 314.476C245.683 314.712 244.115 315.182 242.547 315.653C242.285 315.653 242.024 315.653 241.763 315.653C244.376 312.594 246.99 309.065 249.342 305.536C251.956 301.536 257.967 299.654 259.796 295.184C261.364 293.301 262.932 291.419 265.546 290.713C265.807 290.478 266.069 290.008 265.546 290.008C264.239 289.302 264.501 281.302 265.285 278.714C266.853 274.715 267.898 270.244 271.296 266.95C271.557 266.715 271.557 266.48 271.296 266.245C269.728 264.598 268.944 262.01 268.944 259.186C269.205 257.304 269.466 255.657 269.466 254.01C270.25 251.187 271.557 248.834 273.648 247.658C273.909 247.423 273.909 247.187 273.648 246.952C271.818 244.834 270.512 242.482 269.989 239.894C269.989 237.07 274.171 230.012 274.171 229.777C274.955 227.424 276.523 225.777 278.614 224.836C278.091 225.542 277.83 226.248 277.568 227.189C277.046 229.777 278.614 230.718 280.443 231.424C277.046 231.188 273.909 231.659 273.125 235.423C272.603 239.188 275.477 240.364 278.614 240.129C277.307 240.364 275.739 240.364 274.432 240.599C273.909 240.599 273.909 241.07 274.171 241.305" fill="white"/>
<path d="M298.999 241.07C298.999 244.364 285.67 250.481 282.011 250.246C281.489 250.246 281.489 250.716 281.75 250.952C282.534 251.893 283.057 252.599 283.579 253.54C282.534 252.363 280.966 251.422 279.659 250.716C278.091 250.011 275.739 249.305 274.171 250.481C273.387 251.187 273.125 252.128 272.864 252.834C272.08 254.01 271.557 255.187 271.296 256.363C270.773 258.245 271.818 260.127 273.125 261.539C276.261 265.068 280.705 266.009 285.148 267.421C289.852 268.833 293.511 270.95 294.034 275.42C290.375 270.48 283.057 267.656 276.784 267.656C271.034 267.656 272.341 271.891 274.432 274.95C273.125 274.479 272.08 274.244 270.773 274.479C270.512 274.479 270.512 274.715 270.512 274.95C270.25 276.362 270.25 278.714 272.341 279.185C273.387 279.42 274.693 279.42 276 279.42C276.261 279.42 276.784 279.42 277.568 279.185C273.909 280.361 267.637 280.126 267.114 284.126C266.853 286.714 268.682 289.302 271.034 290.478C274.693 292.125 278.091 294.007 280.966 296.831C275.739 294.007 268.421 289.772 263.716 294.243C262.41 295.419 261.103 296.831 260.058 298.242C259.273 299.183 257.967 300.36 257.705 301.771C257.705 302.477 257.705 302.948 258.228 303.418C259.273 304.124 259.796 304.83 260.319 305.771C256.137 304.595 253.262 305.301 250.387 308.83C250.387 309.065 250.387 309.3 250.387 309.3C251.694 310.241 253.001 310.712 254.308 311.418C256.399 312.594 257.705 314.241 258.751 316.359C259.796 318.947 260.058 321.535 260.319 324.123V323.887C259.012 321.299 257.183 318.947 254.83 317.064C252.74 315.182 250.387 314.241 247.512 314.476C245.683 314.712 244.115 315.182 242.547 315.653C242.285 315.653 242.024 315.653 241.763 315.653C244.376 312.594 246.99 309.065 249.342 305.536C251.956 301.536 257.967 299.654 259.796 295.184C261.364 293.301 262.932 291.419 265.546 290.713C265.807 290.478 266.069 290.008 265.546 290.008C264.239 289.302 264.501 281.302 265.285 278.714C266.853 274.715 267.898 270.244 271.296 266.95C271.557 266.715 271.557 266.48 271.296 266.245C269.728 264.598 268.944 262.01 268.944 259.186C269.205 257.304 269.466 255.657 269.466 254.01C270.25 251.187 271.557 248.834 273.648 247.658C273.909 247.423 273.909 247.187 273.648 246.952C271.818 244.834 270.512 242.482 269.989 239.894C269.989 237.07 274.171 230.012 274.171 229.777C274.955 227.424 276.523 225.777 278.614 224.836C278.091 225.542 277.83 226.248 277.568 227.189C277.046 229.777 278.614 230.718 280.443 231.424C277.046 231.188 273.909 231.659 273.125 235.423C272.603 239.188 275.477 240.364 278.614 240.129C277.307 240.364 275.739 240.364 274.432 240.599C273.909 240.599 273.909 241.07 274.171 241.305" stroke="#007755" stroke-miterlimit="10"/>
</g>
<path opacity="0.5" d="M276 247.658H276.261C276.261 247.658 276.261 247.658 276.522 247.658C278.613 247.658 280.181 248.599 282.011 249.54C284.363 250.716 287.499 249.069 289.59 247.658L289.851 247.422C291.419 245.776 293.51 244.834 295.601 244.129C296.385 243.893 297.431 243.658 298.215 243.423C299.26 243.187 300.306 243.658 301.351 243.188C301.612 243.188 302.135 243.658 301.874 243.658C301.09 244.129 300.044 244.129 298.999 244.364C297.169 244.834 295.34 245.776 293.772 246.717C291.419 248.128 287.499 251.657 288.806 254.481C289.067 254.951 288.283 254.716 288.283 254.481C287.499 253.304 287.499 251.657 288.283 250.481C287.499 250.952 286.715 251.187 285.931 251.422C285.408 251.657 284.886 251.422 284.363 251.422C284.886 252.128 285.408 252.834 285.408 253.775C285.67 254.716 284.363 253.775 284.102 253.54C283.317 252.363 282.795 251.187 281.488 250.481C279.92 249.775 278.613 249.069 276.784 248.599C276.261 248.599 275.477 247.658 276 247.658Z" fill="white" stroke="#007755" stroke-miterlimit="10"/>
<path opacity="0.7" d="M269.728 279.185C270.773 279.185 271.557 279.185 272.603 279.185C273.648 278.949 274.955 278.714 276 278.244C276.523 278.008 277.307 278.008 277.83 277.773C276.784 277.067 275.739 276.126 274.693 275.42C274.171 275.185 273.909 274.009 274.693 274.479C275.739 274.95 276.523 275.185 277.568 275.656C278.614 276.126 279.398 276.597 280.182 277.067C280.443 277.302 280.705 277.302 280.966 277.302C282.273 275.656 285.932 274.244 288.022 274.95C288.284 274.95 289.068 275.656 288.545 275.891C286.716 276.832 284.102 278.479 283.318 280.361C283.057 280.832 282.534 282.949 282.795 283.655C283.579 284.831 283.841 285.537 283.841 286.949C283.841 287.419 283.057 287.184 282.795 286.949C282.534 286.714 282.273 286.478 282.273 286.243C282.273 286.008 282.273 285.772 282.273 285.772C282.011 284.361 280.966 283.184 280.705 281.773C280.443 281.067 280.443 280.126 280.443 279.42C279.136 279.42 277.568 279.891 276.261 280.126C274.432 280.596 272.864 280.832 271.034 280.596C270.25 280.832 268.944 279.185 269.728 279.185Z" fill="white" stroke="#007755" stroke-miterlimit="10"/>
<g opacity="0.7">
<path d="M256.921 303.889C257.967 303.889 259.012 303.419 260.058 303.419C260.842 303.419 261.626 303.419 262.148 303.654C262.148 303.184 262.671 302.948 263.194 302.478C261.364 302.243 259.796 302.007 258.228 301.772C257.967 301.772 256.921 301.301 257.444 301.301C258.751 300.831 260.58 301.066 261.887 301.066C263.455 301.066 265.023 301.066 266.591 300.831C267.376 300.596 269.466 300.125 270.25 300.36C269.989 300.36 269.989 300.125 270.512 300.125C270.773 300.125 271.034 300.125 271.296 300.125C271.557 300.125 272.08 300.36 271.819 300.596C270.773 301.301 269.466 301.772 267.898 302.007C267.114 302.478 266.33 302.713 265.807 302.948C265.285 303.184 265.023 303.419 264.501 303.654C264.239 303.654 264.239 303.889 264.239 303.889C266.069 304.36 268.421 304.831 269.466 306.007C269.728 306.242 269.466 306.478 268.944 306.242C267.114 306.007 265.023 305.536 263.194 305.066C262.148 304.831 261.103 304.36 259.796 304.125C258.751 304.125 257.967 304.125 256.921 303.889C256.399 303.889 256.921 304.36 256.921 303.889Z" fill="white"/>
<path d="M256.921 303.889C257.967 303.889 259.012 303.419 260.058 303.419C260.842 303.419 261.626 303.419 262.148 303.654C262.148 303.184 262.671 302.948 263.194 302.478C261.364 302.243 259.796 302.007 258.228 301.772C257.967 301.772 256.921 301.301 257.444 301.301C258.751 300.831 260.58 301.066 261.887 301.066C263.455 301.066 265.023 301.066 266.591 300.831C267.376 300.596 269.466 300.125 270.25 300.36C269.989 300.36 269.989 300.125 270.512 300.125C270.773 300.125 271.034 300.125 271.296 300.125C271.557 300.125 272.08 300.36 271.819 300.596C270.773 301.301 269.466 301.772 267.898 302.007C267.114 302.478 266.33 302.713 265.807 302.948C265.285 303.184 265.023 303.419 264.501 303.654C264.239 303.654 264.239 303.889 264.239 303.889C266.069 304.36 268.421 304.831 269.466 306.007C269.728 306.242 269.466 306.478 268.944 306.242C267.114 306.007 265.023 305.536 263.194 305.066C262.148 304.831 261.103 304.36 259.796 304.125C258.751 304.125 257.967 304.125 256.921 303.889C256.921 304.36 256.399 303.889 256.921 303.889Z" stroke="#007755" stroke-miterlimit="10"/>
</g>
<path d="M234.967 342.004C234.967 342.004 237.58 349.768 250.387 346.475C262.932 342.945 260.58 324.594 260.58 324.594C260.58 324.594 258.227 310.477 250.648 311.654C244.898 312.359 237.842 315.183 237.58 318.947C237.58 322.476 231.831 332.829 234.967 342.004Z" fill="white" stroke="#007755" stroke-miterlimit="10"/>
<path d="M215.104 350.71C215.104 350.71 213.275 359.415 225.297 355.886C240.456 351.18 240.456 328.359 240.456 328.359C240.456 328.359 240.717 319.418 234.967 318.477C229.479 317.536 217.718 328.123 217.457 331.888C217.457 335.417 212.23 341.769 215.104 350.71Z" fill="white" stroke="#007755" stroke-miterlimit="10"/>
<path d="M190.798 355.65C190.798 355.65 191.06 363.885 203.866 360.591C216.411 357.297 220.593 332.828 220.593 332.828C220.593 332.828 221.638 326.476 215.888 325.77C210.138 325.064 191.844 328.123 191.582 331.652C191.582 335.181 187.923 347.18 190.798 355.65Z" fill="white" stroke="#007755" stroke-miterlimit="10"/>
<path d="M190.798 355.65C190.798 355.65 191.06 363.885 203.866 360.591C216.411 357.297 220.593 332.828 220.593 332.828C220.593 332.828 221.638 326.476 215.888 325.77C210.138 325.064 191.844 328.123 191.582 331.652C191.582 335.181 187.923 347.18 190.798 355.65Z" fill="white" stroke="#007755" stroke-miterlimit="10"/>
<g opacity="0.5">
<path opacity="0.5" d="M197.594 328.829C194.719 330.006 194.196 332.123 193.935 334.947C193.674 341.77 190.799 348.593 190.799 355.651C187.924 347.181 191.321 335.417 191.583 331.653C191.583 329.771 196.287 328.124 201.776 326.947C200.469 327.653 198.901 328.124 197.594 328.829Z" fill="white" stroke="#007755" stroke-miterlimit="10"/>
</g>
<path d="M164.924 358.474C164.924 358.474 167.538 367.65 180.083 364.121C192.628 360.592 192.889 334.711 192.889 334.711C192.889 334.711 193.935 328.124 188.185 327.183C182.435 326.242 164.14 325.771 163.879 329.535C163.879 333.3 163.617 348.357 164.924 358.474Z" fill="white" stroke="#007755" stroke-miterlimit="10"/>
<g opacity="0.6">
<path opacity="0.6" d="M189.753 362.473C187.662 363.885 185.571 365.061 182.957 365.532C181.912 365.767 181.128 365.767 180.083 365.767C180.605 365.532 181.389 365.296 181.912 365.061C183.741 364.12 185.31 362.473 187.139 361.532C188.969 360.591 190.275 360.591 191.582 361.532C191.059 361.767 190.537 362.238 189.753 362.473Z" fill="white" stroke="#007755" stroke-miterlimit="10"/>
<path opacity="0.6" d="M202.82 363.414C206.479 362.708 208.047 359.884 211.184 358.237C212.752 357.296 215.888 356.59 217.195 358.473C217.195 358.237 217.195 358.237 217.456 358.237C217.456 358.237 217.979 358.708 217.717 358.708C216.933 358.943 216.411 358.943 215.627 358.943C214.059 359.179 212.229 360.355 210.922 361.296C208.309 363.178 206.479 364.12 203.082 363.884C203.082 364.12 202.559 363.414 202.82 363.414Z" fill="white" stroke="#007755" stroke-miterlimit="10"/>
<path opacity="0.6" d="M228.172 356.592C230.263 355.886 231.831 354.945 233.399 353.769C234.444 353.063 235.228 352.122 236.535 351.887C236.797 351.887 236.797 352.122 237.058 352.122C237.842 353.063 236.274 354.475 235.49 355.181C233.66 356.827 231.047 357.298 228.695 357.063C228.433 357.063 227.91 356.592 228.172 356.592Z" fill="white" stroke="#007755" stroke-miterlimit="10"/>
<path opacity="0.6" d="M249.864 347.886C254.307 346.71 257.444 343.651 259.273 339.652C259.273 339.417 259.796 339.887 259.796 339.887C259.534 342.005 258.75 343.887 257.182 345.769C255.353 347.886 253.262 348.592 250.387 348.828C250.126 348.828 249.342 348.122 249.864 347.886Z" fill="white" stroke="#007755" stroke-miterlimit="10"/>
<path opacity="0.6" d="M274.693 331.181C274.431 331.416 274.431 331.416 274.17 331.652C272.863 332.828 271.034 334.946 268.943 335.181C268.42 335.181 267.636 334.475 267.898 334.005C268.159 333.299 268.682 332.828 269.466 332.358C270.511 331.652 271.295 330.946 272.079 330.475C272.863 330.005 273.647 329.299 274.431 328.828C275.216 328.123 276.522 327.652 277.045 326.711C277.045 326.711 277.045 326.711 277.306 326.711C276.784 328.123 275.738 329.77 274.693 331.181Z" fill="white" stroke="#007755" stroke-miterlimit="10"/>
<path opacity="0.6" d="M290.374 308.83C291.158 307.889 292.204 307.183 292.988 306.478C294.294 305.301 295.079 304.125 295.863 302.713C297.431 300.596 298.215 297.772 299.26 295.42C299.26 295.184 299.783 295.655 299.783 295.89C298.215 301.066 296.385 306.713 290.897 309.536C290.897 309.536 290.113 309.066 290.374 308.83Z" fill="white" stroke="#007755" stroke-miterlimit="10"/>
</g>
<path opacity="0.6" d="M308.146 248.835C307.362 246.482 305.794 244.129 302.919 243.659C300.306 243.188 297.692 243.659 295.079 244.364C296.124 242.953 297.431 241.776 298.999 241.07C301.09 240.129 303.181 240.6 305.271 241.07C307.101 241.306 308.408 240.6 309.453 239.424C309.714 239.188 309.976 238.718 309.976 238.482C309.976 239.894 309.976 241.541 309.714 243.188C309.453 246.011 309.453 250.482 308.93 255.893C309.192 253.305 308.93 250.952 308.146 248.835Z" fill="white" stroke="#007755" stroke-miterlimit="10"/>
<path opacity="0.6" d="M51.2345 226.484C51.7573 229.072 50.1891 230.013 48.3596 230.719C51.7573 230.483 54.8935 230.954 55.6776 234.718C56.2003 238.483 53.3254 239.659 50.1891 239.424C51.4959 239.659 53.064 239.659 54.3708 239.894C54.8935 239.894 55.1549 240.6 54.6322 240.6C46.2688 242.953 37.3827 244.365 30.3262 243.188C32.9397 245.07 42.6098 250.011 46.2688 249.776C46.7915 249.776 46.7915 250.247 46.5302 250.482C45.7461 251.423 45.2234 252.129 44.7007 253.07C45.7461 251.893 47.3142 250.952 48.621 250.247C50.1891 249.541 52.5413 248.835 54.1094 250.011C54.8935 250.717 55.1549 251.658 55.4162 252.364C56.2003 253.54 56.723 254.717 56.9844 255.893C57.5071 257.775 56.4616 259.658 55.1549 261.069C52.0186 264.598 46.2688 262.246 41.5644 263.657C36.86 265.069 34.5078 270.48 33.9851 274.951C37.6441 270.01 44.962 267.186 51.2345 267.186C56.9843 267.186 55.6776 271.421 53.5867 274.48C54.8935 274.01 55.9389 273.774 57.2457 274.009C57.5071 274.009 57.5071 274.245 57.5071 274.48C57.7684 275.892 57.7684 278.244 55.6776 278.715C54.6322 278.95 53.3254 278.95 52.0186 278.95C51.7573 278.95 51.2345 278.95 50.4505 278.715C54.1094 279.891 60.382 279.656 60.9047 283.656C61.166 286.244 55.6776 289.538 53.3254 290.479C49.6664 292.126 49.9278 293.537 47.0529 296.126C52.28 293.302 59.5979 289.067 64.3023 293.537C65.6091 294.714 66.9158 296.126 67.9612 297.537C68.7453 298.478 70.0521 299.655 70.3134 301.066C70.3134 301.772 70.3134 302.243 69.7907 302.713C68.7453 303.419 68.2226 304.125 67.6999 305.066C71.8816 303.89 74.7565 304.595 77.6314 308.125C77.6314 308.36 77.6314 308.595 77.6314 308.595C76.3246 309.536 75.0178 310.007 73.711 310.713C71.6202 311.889 70.3134 313.536 69.268 315.653C68.2226 318.242 67.9612 320.83 67.6999 323.418V323.182C69.0067 320.594 70.8361 318.242 73.1883 316.359C75.2792 314.477 77.6314 313.536 80.5063 313.771C82.3358 314.007 83.9039 314.477 85.472 314.948C85.7334 314.948 85.9947 314.948 86.2561 314.948C83.6425 311.889 81.029 308.36 78.6768 304.831C76.0632 300.831 70.0521 298.949 68.2226 294.479C66.6545 292.596 65.0863 290.714 62.4728 290.008C62.2114 289.773 61.9501 289.302 62.4728 289.302C63.7796 288.597 63.5182 280.597 62.7341 278.009C61.166 274.01 60.1206 269.539 56.723 266.245C56.4616 266.01 56.4616 265.775 56.723 265.54C58.2911 263.893 59.0752 261.305 59.0752 258.481C58.8138 256.599 58.5525 254.952 58.5525 253.305C57.7684 250.482 56.4616 248.129 54.3708 246.953C54.1094 246.717 54.1094 246.482 54.3708 246.247C56.2003 244.129 57.5071 241.777 58.0298 239.189C58.0298 236.365 53.8481 229.307 53.8481 229.072C53.064 226.719 51.4959 225.072 49.4051 224.131C50.7118 224.837 51.2345 225.778 51.2345 226.484Z" fill="white" stroke="#007755" stroke-miterlimit="10"/>
<path opacity="0.7" d="M52.541 247.658H52.2797C52.2797 247.658 52.2797 247.658 52.0183 247.658C49.9275 247.658 48.3594 248.599 46.5299 249.54C44.1777 250.716 41.0414 249.069 38.9506 247.658L38.6892 247.422C37.1211 245.776 35.0303 244.834 32.9394 244.129C32.1554 243.893 31.11 243.658 30.3259 243.423C29.2805 243.187 28.2351 243.658 27.1896 243.188C26.9283 243.188 26.4056 243.658 26.6669 243.658C27.451 244.129 28.4964 244.129 29.5418 244.364C31.3713 244.834 33.2008 245.776 34.7689 246.717C37.1211 248.128 41.0414 251.657 39.7347 254.481C39.4733 254.951 40.2574 254.716 40.2574 254.481C41.0414 253.304 41.0414 251.657 40.2574 250.481C41.0414 250.952 41.8255 251.187 42.6096 251.422C43.1323 251.657 43.655 251.422 44.1777 251.422C43.655 252.128 43.1323 252.834 43.1323 253.775C42.8709 254.716 44.1777 253.775 44.439 253.54C45.2231 252.363 45.7458 251.187 47.0526 250.481C48.6207 249.775 49.9275 249.069 51.757 248.599C52.541 248.599 53.0637 247.658 52.541 247.658Z" fill="white" stroke="#007755" stroke-miterlimit="10"/>
<path opacity="0.7" d="M58.8132 279.185C57.7677 279.185 56.9837 279.185 55.9383 279.185C54.8928 278.949 53.5861 278.714 52.5407 278.244C52.018 278.008 51.2339 278.008 50.7112 277.773C51.7566 277.067 52.802 276.126 53.8474 275.42C54.3701 275.185 54.6315 274.009 53.8474 274.479C52.802 274.95 52.018 275.185 50.9725 275.656C49.9271 276.126 49.1431 276.597 48.359 277.067C48.0976 277.302 47.8363 277.302 47.5749 277.302C46.2682 275.656 42.6092 274.244 40.5184 274.95C40.257 274.95 39.4729 275.656 39.9957 275.891C41.8251 276.832 44.4387 278.479 45.2227 280.361C45.4841 280.832 46.0068 282.949 45.7454 283.655C44.9614 284.831 44.7 285.537 44.7 286.949C44.7 287.419 45.4841 287.184 45.7454 286.949C46.0068 286.714 46.2682 286.478 46.2682 286.243C46.2682 286.008 46.2682 285.772 46.2682 285.772C46.5295 284.361 47.5749 283.184 47.8363 281.773C48.0976 281.067 48.0976 280.126 48.0976 279.42C49.4044 279.42 50.9725 279.891 52.2793 280.126C54.1088 280.596 55.6769 280.832 57.5064 280.596C58.5518 280.832 59.5972 279.185 58.8132 279.185Z" fill="white" stroke="#007755" stroke-miterlimit="10"/>
<g opacity="0.7">
<path d="M71.881 303.889C70.8356 303.889 69.7902 303.419 68.7448 303.419C67.9607 303.419 67.1767 303.419 66.654 303.654C66.654 303.184 66.1312 302.948 65.6085 302.478C67.438 302.243 69.0061 302.007 70.5743 301.772C70.8356 301.772 71.8811 301.301 71.3583 301.301C70.0516 300.831 68.2221 301.066 66.9153 301.066C65.3472 301.066 63.7791 301.066 62.2109 300.831C61.4269 300.596 59.336 300.125 58.552 300.36C58.8133 300.36 58.8133 300.125 58.2906 300.125C58.0292 300.125 57.7679 300.125 57.5065 300.125C57.2452 300.125 56.7225 300.36 56.9838 300.596C58.0292 301.301 59.336 301.772 60.9041 302.007C61.6882 302.478 62.4723 302.713 62.995 302.948C63.5177 303.184 63.779 303.419 64.3018 303.654C64.5631 303.654 64.5631 303.889 64.5631 303.889C62.7336 304.36 60.3814 304.831 59.336 306.007C59.0747 306.242 59.336 306.478 59.8587 306.242C61.6882 306.007 63.779 305.536 65.6085 305.066C66.654 304.831 67.6994 304.36 69.0061 304.125C70.0516 304.125 70.8356 304.125 71.881 303.889C72.4038 303.889 71.6197 304.36 71.881 303.889Z" fill="white"/>
<path d="M71.881 303.889C70.8356 303.889 69.7902 303.419 68.7448 303.419C67.9607 303.419 67.1767 303.419 66.654 303.654C66.654 303.184 66.1312 302.948 65.6085 302.478C67.438 302.243 69.0061 302.007 70.5743 301.772C70.8356 301.772 71.881 301.301 71.3583 301.301C70.0516 300.831 68.2221 301.066 66.9153 301.066C65.3472 301.066 63.7791 301.066 62.2109 300.831C61.4269 300.596 59.336 300.125 58.552 300.36C58.8133 300.36 58.8133 300.125 58.2906 300.125C58.0292 300.125 57.7679 300.125 57.5065 300.125C57.2452 300.125 56.7225 300.36 56.9838 300.596C58.0292 301.301 59.336 301.772 60.9041 302.007C61.6882 302.478 62.4723 302.713 62.995 302.948C63.5177 303.184 63.779 303.419 64.3018 303.654C64.5631 303.654 64.5631 303.889 64.5631 303.889C62.7336 304.36 60.3814 304.831 59.336 306.007C59.0747 306.242 59.336 306.478 59.8587 306.242C61.6882 306.007 63.779 305.536 65.6085 305.066C66.654 304.831 67.6994 304.36 69.0061 304.125C70.0516 304.125 70.8356 304.125 71.881 303.889C71.6197 304.36 72.4038 303.889 71.881 303.889Z" stroke="#007755" stroke-miterlimit="10"/>
</g>
<path d="M93.5743 342.004C93.5743 342.004 90.9608 349.768 78.1544 346.475C65.6094 342.945 67.9616 324.594 67.9616 324.594C67.9616 324.594 70.3138 310.477 77.893 311.654C83.6428 312.359 90.6994 315.183 90.9608 318.947C90.9608 322.476 96.7106 332.829 93.5743 342.004Z" fill="white" stroke="#007755" stroke-miterlimit="10"/>
<path d="M113.438 350.71C113.438 350.71 115.267 359.415 103.245 355.886C88.0863 351.18 88.0863 328.359 88.0863 328.359C88.0863 328.359 87.8249 319.418 93.5747 318.477C99.0632 317.536 110.824 328.123 111.086 331.888C111.086 335.417 116.313 341.769 113.438 350.71Z" fill="white" stroke="#007755" stroke-miterlimit="10"/>
<path d="M137.744 355.65C137.744 355.65 137.482 363.885 124.676 360.591C112.131 357.297 107.949 332.828 107.949 332.828C107.949 332.828 106.904 326.476 112.654 325.77C118.404 325.064 136.698 328.123 136.96 331.652C137.221 335.181 140.88 347.18 137.744 355.65Z" fill="white" stroke="#007755" stroke-miterlimit="10"/>
<path d="M137.744 355.65C137.744 355.65 137.482 363.885 124.676 360.591C112.131 357.297 107.949 332.828 107.949 332.828C107.949 332.828 106.904 326.476 112.654 325.77C118.404 325.064 136.698 328.123 136.96 331.652C137.221 335.181 140.88 347.18 137.744 355.65Z" fill="white" stroke="#007755" stroke-miterlimit="10"/>
<g opacity="0.5">
<path opacity="0.5" d="M131.21 328.829C134.084 330.006 134.607 332.123 134.868 334.947C135.13 341.77 138.005 348.593 138.005 355.651C140.88 347.181 137.482 335.417 137.221 331.653C137.221 329.771 132.516 328.124 127.028 326.947C128.335 327.653 129.641 328.124 131.21 328.829Z" fill="white" stroke="#007755" stroke-miterlimit="10"/>
</g>
<path d="M163.617 358.474C163.617 358.474 161.004 367.65 148.459 364.121C135.914 360.592 135.652 334.711 135.652 334.711C135.652 334.711 134.607 328.124 140.357 327.183C146.107 326.242 164.401 325.771 164.663 329.535C164.663 333.3 164.924 348.357 163.617 358.474Z" fill="white" stroke="#007755" stroke-miterlimit="10"/>
<path d="M48.6213 142.856C44.701 141.161 36.8603 137.558 34.2468 142.22V142.432C30.0651 145.823 26.9288 149.002 24.838 154.088C22.2245 159.81 22.4858 166.591 23.5312 172.737C23.7926 174.856 24.3153 178.67 25.3607 182.061C26.9288 183.968 29.0197 185.876 31.6332 186.511C34.7695 187.359 38.1671 187.147 41.5647 186.723C44.4396 186.3 47.5759 186.3 50.4508 185.876H50.7121C52.5416 185.24 54.3711 184.392 56.2006 183.333C57.246 182.061 58.2914 180.578 59.0755 179.094C61.1663 174.432 60.6436 169.346 60.6436 164.472C60.6436 160.657 60.3822 156.843 60.3822 153.028C58.5527 148.154 54.3711 145.187 48.6213 142.856Z" fill="white" stroke="#007755" stroke-miterlimit="10"/>
<path d="M57.2455 124.63C53.5865 122.511 46.53 118.061 43.1324 122.299C43.1324 122.299 43.1324 122.511 42.871 122.511C38.1666 125.266 34.5076 128.233 31.3714 132.895C27.7124 138.193 26.9284 144.975 26.4057 151.12C26.4057 153.24 25.8829 157.054 26.4057 160.657C27.7124 162.776 29.2806 164.895 31.8941 165.955C35.0304 167.226 38.428 167.438 41.5642 167.438C44.4391 167.438 47.5754 167.65 50.4503 167.65H50.7116C52.5411 167.226 54.632 166.802 56.7228 165.955C58.0296 164.895 59.3363 163.624 60.3818 162.14C63.2567 157.902 63.7794 152.816 64.5634 147.942C65.0861 144.127 65.6088 140.312 66.3929 136.498C65.8702 131.412 62.2112 127.597 57.2455 124.63Z" fill="white" stroke="#007755" stroke-miterlimit="10"/>
<path d="M57.2455 124.63C53.5865 122.511 46.53 118.061 43.1324 122.299C43.1324 122.299 43.1324 122.511 42.871 122.511C38.1666 125.266 34.5076 128.233 31.3714 132.895C27.7124 138.193 26.9284 144.975 26.4057 151.12C26.4057 153.24 25.8829 157.054 26.4057 160.657C27.7124 162.776 29.2806 164.895 31.8941 165.955C35.0304 167.226 38.428 167.438 41.5642 167.438C44.4391 167.438 47.5754 167.65 50.4503 167.65H50.7116C52.5411 167.226 54.632 166.802 56.7228 165.955C58.0296 164.895 59.3363 163.624 60.3818 162.14C63.2567 157.902 63.7794 152.816 64.5634 147.942C65.0861 144.127 65.6088 140.312 66.3929 136.498C65.8702 131.412 62.2112 127.597 57.2455 124.63Z" fill="white" stroke="#007755" stroke-miterlimit="10"/>
<path d="M60.1214 116.155C56.9851 114.459 50.7126 110.645 47.5763 114.247C47.5763 114.247 47.5763 114.459 47.315 114.459C43.1333 116.79 39.7357 119.121 36.8608 122.936C33.7245 127.386 32.6791 132.896 32.4178 137.982C32.1564 140.949 31.6337 144.34 33.7245 147.095C35.554 149.638 38.6903 150.697 42.0879 151.121C48.6218 151.969 57.2465 152.181 61.9508 147.73C65.6098 144.34 65.8712 139.254 66.6552 135.015C67.1779 131.837 67.7006 128.658 68.2234 125.691C67.962 121.664 64.5644 118.486 60.1214 116.155Z" fill="white" stroke="#007755" stroke-miterlimit="10"/>
<path d="M60.1214 116.155C56.9851 114.459 50.7126 110.645 47.5763 114.247C47.5763 114.247 47.5763 114.459 47.315 114.459C43.1333 116.79 39.7357 119.121 36.8608 122.936C33.7245 127.386 32.6791 132.896 32.4178 137.982C32.1564 140.949 31.6337 144.34 33.7245 147.095C35.554 149.638 38.6903 150.697 42.0879 151.121C48.6218 151.969 57.2465 152.181 61.9508 147.73C65.6098 144.34 65.8712 139.254 66.6552 135.015C67.1779 131.837 67.7006 128.658 68.2234 125.691C67.962 121.664 64.5644 118.486 60.1214 116.155Z" fill="white" stroke="#007755" stroke-miterlimit="10"/>
<path d="M66.9164 101.954C63.7802 100.047 58.2917 96.2326 55.1555 99.8352C55.1555 99.8352 55.1555 100.047 54.8941 100.047C50.7125 102.166 47.5762 104.497 44.9627 108.312C41.8264 112.762 40.781 118.272 40.2583 123.358C39.9969 125.265 39.7356 128.232 39.9969 131.199C41.0423 132.895 42.3491 134.59 44.44 135.649C47.0535 136.709 49.9284 136.921 52.5419 136.921C55.1555 136.921 57.5077 137.345 60.1212 137.345H60.3826C61.9507 137.133 63.7802 136.709 65.3483 136.073C66.6551 135.226 67.7005 134.166 68.4846 132.895C71.0981 129.504 71.6208 125.265 72.4049 121.239C72.9276 118.06 73.7117 115.093 74.2344 111.915C74.2344 107.676 71.3595 104.709 66.9164 101.954Z" fill="white" stroke="#007755" stroke-miterlimit="10"/>
<path d="M55.1555 99.8359C55.1555 99.8359 55.1555 100.048 55.1555 99.8359C50.9738 102.167 47.5762 104.498 44.9627 108.313C41.8264 112.763 40.781 118.273 40.2583 123.359C39.9969 125.266 39.7356 128.233 39.9969 131.2C41.0423 132.895 42.3491 134.591 44.44 135.65C47.0535 136.71 49.9284 136.922 52.5419 136.922C55.1555 136.922 57.5077 137.346 60.1212 137.346H60.3826C61.9507 137.134 63.7802 136.71 65.3483 136.074C66.6551 135.226 67.7005 134.167 68.4846 132.895C71.0981 129.505 71.6208 125.266 72.4049 121.24C72.9276 118.061 73.7117 115.094 74.2344 111.915" fill="white"/>
<path d="M55.1555 99.8359C55.1555 99.8359 55.1555 100.048 55.1555 99.8359C50.9738 102.167 47.5762 104.498 44.9627 108.313C41.8264 112.763 40.781 118.273 40.2583 123.359C39.9969 125.266 39.7356 128.233 39.9969 131.2C41.0423 132.895 42.3491 134.591 44.44 135.65C47.0535 136.71 49.9284 136.922 52.5419 136.922C55.1555 136.922 57.5077 137.346 60.1212 137.346H60.3826C61.9507 137.134 63.7802 136.71 65.3483 136.074C66.6551 135.226 67.7005 134.167 68.4846 132.895C71.0981 129.505 71.6208 125.266 72.4049 121.24C72.9276 118.061 73.7117 115.094 74.2344 111.915" stroke="#007755" stroke-miterlimit="10"/>
<path d="M69.0072 119.121C70.8367 118.273 72.4049 117.002 73.4503 115.518C76.5865 111.28 79.2001 106.194 79.2001 101.32C79.2001 96.4457 78.1547 90.0881 77.1092 85.214C76.3252 82.671 74.2343 79.916 70.0527 79.916C64.3029 82.671 57.2463 87.5451 53.5873 96.6576C52.0192 100.26 49.667 104.922 49.667 108.737C49.667 112.763 52.8032 116.79 57.2463 118.273C60.9052 119.121 65.0869 119.545 69.0072 119.121Z" fill="white" stroke="#007755" stroke-miterlimit="10"/>
<path d="M69.0072 119.121C70.8367 118.273 72.4049 117.002 73.4503 115.518C76.5865 111.28 79.2001 106.194 79.2001 101.32C79.2001 96.4457 78.1547 90.0881 77.1092 85.214C76.3252 82.671 74.2343 79.916 70.0527 79.916C64.3029 82.671 57.2463 87.5451 53.5873 96.6576C52.0192 100.26 49.667 104.922 49.667 108.737C49.667 112.763 52.8032 116.79 57.2463 118.273C60.9052 119.121 65.0869 119.545 69.0072 119.121Z" fill="white" stroke="#007755" stroke-miterlimit="10"/>
<path opacity="0.7" d="M56.2002 171.464C55.6775 171.464 54.8934 171.252 54.3707 171.252C50.7118 171.676 47.3141 172.947 43.9165 174.219C42.8711 174.643 41.5643 175.278 39.9962 175.49C38.1667 176.338 36.5986 176.974 34.5078 177.398C33.201 177.609 31.6329 177.821 30.0647 177.398C29.0193 177.186 27.7125 176.338 26.4058 176.126C26.9285 177.398 29.542 178.669 30.8488 178.881C32.6783 179.305 34.2464 178.669 35.8145 178.033C36.3372 177.821 36.8599 177.609 37.3827 177.398C37.1213 178.033 36.8599 178.669 36.5986 179.093C36.5986 178.669 36.3372 179.305 36.3372 179.305C36.0759 179.517 35.5532 179.941 35.2918 180.152C34.7691 180.364 33.985 181.212 33.201 181.424C34.7691 181.212 36.0759 180.788 37.644 180.364C38.1667 179.941 38.6894 179.517 38.9508 178.881C39.4735 178.245 39.4735 177.186 39.9962 176.55C39.9962 176.55 39.9962 176.338 40.2576 176.338C40.7803 176.126 41.5643 175.914 42.087 175.49C43.1325 175.702 44.4392 175.702 45.746 175.914C46.7914 175.914 47.8368 175.914 48.8823 175.914C50.7117 175.914 52.2799 175.49 54.1094 175.066C52.2799 174.643 49.9277 174.643 48.0982 174.431C47.0528 174.431 46.0074 174.431 44.9619 174.431C48.6209 173.159 52.2799 171.888 56.2002 171.464Z" fill="white" stroke="#007755" stroke-miterlimit="10"/>
<g opacity="0.5">
<path d="M99.0625 97.2935C106.119 89.2406 101.153 80.34 101.153 80.34C101.153 80.34 98.8012 76.5254 94.8809 74.4062C96.1876 75.8897 97.4944 77.585 97.7558 78.4327C98.8012 81.8234 98.0171 85.6379 98.2785 89.2406" fill="white"/>
<path d="M99.0625 97.2935C106.119 89.2405 101.153 80.34 101.153 80.34C101.153 80.34 98.8012 76.5254 94.8809 74.4062C96.1876 75.8897 97.4944 77.585 97.7558 78.4327C98.8012 81.8234 98.0171 85.6379 98.2785 89.2406" stroke="#007755" stroke-miterlimit="10"/>
</g>
<path d="M101.154 77.3734C101.154 77.3734 93.5744 64.0225 83.6429 71.2277C73.4501 78.433 67.9617 95.8104 73.7115 101.32C79.4613 106.83 90.4381 106.618 98.5401 97.2938C106.903 87.9694 101.154 77.3734 101.154 77.3734Z" fill="white" stroke="#007755" stroke-miterlimit="10"/>
<path d="M125.982 62.7498C124.675 61.4782 123.368 60.2067 121.8 59.1471C117.88 57.6637 111.869 57.4518 105.073 63.8094C92.7897 75.6769 102.198 94.7497 103.505 94.3258C104.812 93.6901 124.936 96.445 129.379 87.9682C132.254 82.6702 130.686 74.1934 129.118 68.6835C128.073 66.5643 127.027 64.869 125.982 62.7498Z" fill="white" stroke="#007755" stroke-miterlimit="10"/>
<path d="M161.004 59.5711C161.004 59.5711 155.777 48.9752 141.402 53.4255C127.028 57.8758 129.903 83.0941 129.903 83.0941C129.903 83.0941 129.641 89.2397 136.437 89.8754C143.232 90.5112 165.447 91.1469 165.186 87.1205C164.924 83.0941 165.708 64.4453 161.004 59.5711Z" fill="white" stroke="#007755" stroke-miterlimit="10"/>
<path opacity="0.7" d="M57.5076 156.843C57.769 156.631 57.769 156.419 58.0303 156.419C56.2009 156.631 54.3714 156.631 52.5419 156.419C52.2805 156.419 52.2805 156.419 52.0192 156.207C50.7124 155.995 49.4056 155.571 48.0989 155.359C47.5762 155.359 47.0534 155.359 46.5307 155.571C44.9626 155.995 42.8718 157.267 40.7809 157.691C37.906 158.75 35.5539 158.114 33.2017 156.631C35.5539 158.962 37.3833 159.598 41.0423 158.326C41.8264 157.902 42.6104 157.479 43.6558 157.055C44.1785 158.326 45.7467 159.386 46.008 160.657C46.2694 162.141 44.9626 163.412 44.7013 164.684C44.9626 164.472 45.224 164.472 45.4853 164.26C46.008 163.2 46.7921 162.353 47.3148 161.505C47.5762 161.717 47.5762 161.929 47.8375 162.141C48.3602 162.777 49.4056 163.412 50.1897 163.624C50.9738 164.048 52.2805 163.624 53.0646 163.412C52.8032 163.412 52.5419 163.2 52.2805 163.2C50.1897 162.777 48.0989 161.717 47.8375 160.022C47.8375 159.81 47.8375 159.598 47.8375 159.598C47.8375 158.538 47.0534 157.902 46.008 157.267C46.008 157.267 46.008 157.267 46.008 157.055C46.7921 156.843 47.8375 156.631 47.5762 156.631C49.4056 156.843 50.9738 157.479 53.0646 157.479C54.6327 157.691 56.2009 157.479 57.5076 156.843Z" fill="white" stroke="#007755" stroke-miterlimit="10"/>
<path opacity="0.7" d="M53.0643 144.55C53.0643 144.338 53.0643 144.126 53.3257 144.126C55.4165 143.702 58.5527 142.007 60.9049 142.007C60.1209 141.795 59.3368 141.583 58.5527 141.583C57.5073 141.795 56.7233 142.007 55.6778 142.431C54.6324 142.855 53.587 142.855 52.8029 142.855C52.2802 142.855 51.7575 142.855 51.2348 142.855C48.6213 142.643 46.7918 140.947 45.2237 139.252C45.2237 139.252 45.2237 139.252 45.2237 139.464C45.7464 140.312 46.0077 141.371 46.5304 142.431C47.5759 144.338 45.485 145.186 43.9169 146.033C43.1328 146.245 42.6101 146.881 42.0874 147.305C42.0874 147.729 42.0874 148.152 42.3488 148.364C42.6101 148.152 42.8715 147.941 42.6101 147.729C42.0874 146.669 45.2237 146.245 46.0077 145.821C47.0531 145.398 47.5758 144.55 48.0986 143.702C48.3599 143.49 48.3599 143.278 48.6213 142.855C49.6667 143.702 50.9735 144.126 52.5416 144.338C52.2802 144.762 52.0189 145.186 52.2802 145.609C52.5416 146.033 53.3257 146.245 53.8484 146.457C54.1097 146.457 54.3711 146.669 54.3711 146.669C54.3711 146.669 54.6324 146.669 54.6324 146.881L54.8938 147.093C54.8938 146.669 54.6324 146.245 54.1097 145.821C53.587 145.609 53.3257 145.186 53.0643 144.55Z" fill="white" stroke="#007755" stroke-miterlimit="10"/>
<path opacity="0.7" d="M58.5527 129.293C58.2913 129.081 58.5527 128.657 59.0754 128.657C61.4276 128.657 63.2571 127.81 65.3479 127.174C65.3479 127.174 65.3479 127.174 65.0865 127.174C62.9957 127.598 60.6435 128.022 58.814 127.386C58.5527 127.386 58.2913 127.174 58.03 126.962C56.7232 126.326 55.6778 125.479 54.6324 124.631C55.1551 125.69 55.6778 126.538 55.4164 127.598C55.1551 128.657 54.371 129.293 53.3256 129.929C51.4961 130.988 50.4507 132.26 50.4507 133.955C51.2347 131.836 53.0642 131.2 54.8937 130.141C55.6778 129.717 55.9391 128.869 56.4618 128.233C56.4618 128.445 56.2005 128.657 56.2005 128.657C56.4618 129.293 56.7232 129.717 57.2459 130.141C57.5073 130.353 58.03 130.565 58.2913 130.988C58.2913 131.2 58.5527 131.624 58.5527 131.836C58.5527 132.048 59.0754 132.26 59.3367 132.472C59.8595 132.684 60.1208 133.32 60.6435 133.531C60.6435 133.531 60.6435 133.531 60.9049 133.531C59.8595 132.048 59.3367 130.565 58.5527 129.293Z" fill="white" stroke="#007755" stroke-miterlimit="10"/>
<path opacity="0.6" d="M89.1307 66.1406C85.7331 65.293 82.5969 66.7764 80.2447 68.6837C78.1538 70.1671 75.0176 72.9221 75.0176 75.4651C75.0176 75.677 75.0176 75.677 75.2789 75.4651C75.2789 75.4651 75.5403 75.4651 75.5403 75.2532C77.1084 73.5578 78.1538 71.8625 79.9833 70.1671C81.0287 69.3194 82.3355 68.4718 83.6423 68.0479C84.9491 67.6241 86.5172 67.836 87.824 67.4122C88.608 67.4122 90.1761 66.3526 89.1307 66.1406Z" fill="white" stroke="#007755" stroke-miterlimit="10"/>
<path opacity="0.6" d="M117.88 55.7574C115.266 54.6978 112.13 54.4859 109.516 55.3336C107.425 55.9694 104.289 58.0886 103.244 59.7839C102.982 60.4197 103.767 60.6316 104.289 59.7839C105.335 58.3005 108.21 56.817 110.3 56.6051C112.391 56.1813 114.743 57.029 116.834 56.817C117.357 56.817 118.402 55.9694 117.88 55.7574Z" fill="white" stroke="#007755" stroke-miterlimit="10"/>
<path opacity="0.6" d="M149.504 49.8234C144.277 47.4923 136.959 50.883 133.562 54.0619C133.3 54.2738 133.039 54.6976 133.562 54.6976C135.13 54.6976 136.959 52.7903 138.266 52.1546C141.141 50.6711 145.061 51.095 148.459 51.095C148.981 51.095 150.027 50.2473 149.504 49.8234Z" fill="white" stroke="#007755" stroke-miterlimit="10"/>
<path opacity="0.6" d="M63.779 80.3398C56.9838 83.3067 51.4953 90.0881 49.9272 96.0218C49.6658 96.6576 50.7113 96.0218 50.7113 95.8099C53.8475 90.3 57.5065 84.7901 63.5176 80.7637C63.779 80.7637 64.0403 80.3398 63.779 80.3398Z" fill="white" stroke="#007755" stroke-miterlimit="10"/>
<path opacity="0.6" d="M43.1326 106.618C41.5645 108.102 40.2577 109.373 39.2123 111.281C38.4282 112.764 37.3828 115.095 38.1668 116.579C38.1668 116.79 38.4282 116.579 38.6896 116.579C38.9509 116.579 38.9509 116.367 38.9509 116.155C39.735 114.459 40.2577 112.764 41.0417 111.069C41.8258 109.585 42.8712 108.314 43.9166 107.042C44.4393 106.194 43.6553 106.194 43.1326 106.618Z" fill="white" stroke="#007755" stroke-miterlimit="10"/>
<path opacity="0.6" d="M32.6785 123.572C31.1104 125.055 29.5423 127.599 29.8036 129.506C29.8036 129.718 29.8036 129.718 29.8036 129.718C30.065 129.93 30.3263 129.506 30.3263 129.294C30.849 128.234 31.3717 126.963 31.8944 125.903C32.4171 125.055 33.2012 124.208 33.2012 123.36C33.4626 123.148 32.6785 123.572 32.6785 123.572Z" fill="white" stroke="#007755" stroke-miterlimit="10"/>
<path opacity="0.6" d="M26.4058 137.135C26.4058 137.135 26.6672 136.711 26.4058 136.711H26.1445C25.8831 136.711 25.8831 136.923 25.8831 136.923C25.0991 137.559 24.5764 139.466 24.315 139.89C23.5309 142.645 22.4855 146.035 23.7923 148.79C24.0537 149.214 24.8377 148.366 24.8377 148.154C25.6218 145.823 25.3604 143.492 25.8831 141.161C26.1445 140.102 26.4059 139.042 26.6672 137.771C26.6672 137.559 26.9286 136.711 26.4058 137.135Z" fill="white" stroke="#007755" stroke-miterlimit="10"/>
<path d="M281.488 142.856C285.408 141.161 293.249 137.77 295.862 142.432V142.644C300.044 146.035 303.18 149.213 305.271 154.3C307.884 160.021 307.623 166.803 306.578 172.948C306.316 175.068 305.794 178.882 304.748 182.273C303.18 184.18 301.089 186.087 298.476 186.723C295.339 187.571 291.942 187.359 288.544 186.935C285.669 186.511 282.533 186.511 279.658 186.087H279.397C277.567 185.452 275.738 184.604 273.908 183.544C272.863 182.273 271.817 180.789 271.033 179.306C268.943 174.644 269.465 169.558 269.465 164.684C269.465 160.869 269.727 157.054 269.727 153.24C271.556 148.154 275.738 145.187 281.488 142.856Z" fill="white" stroke="#007755" stroke-miterlimit="10"/>
<path d="M272.863 124.63C276.522 122.511 283.579 118.061 286.976 122.299C286.976 122.299 286.976 122.511 287.238 122.511C291.942 125.266 295.601 128.233 298.737 132.895C302.396 138.193 303.18 144.975 303.703 151.12C303.703 153.24 303.964 157.054 303.703 160.657C302.396 162.776 300.828 164.895 298.215 165.955C295.078 167.226 291.681 167.438 288.545 167.438C285.67 167.438 282.533 167.65 279.658 167.65H279.397C277.568 167.226 275.477 166.802 273.386 165.955C272.079 164.895 270.772 163.624 269.727 162.14C266.852 157.902 266.329 152.816 265.545 147.942C265.023 144.127 264.5 140.312 263.716 136.498C264.239 131.412 267.898 127.597 272.863 124.63Z" fill="white" stroke="#007755" stroke-miterlimit="10"/>
<path d="M272.863 124.63C276.522 122.511 283.579 118.061 286.976 122.299C286.976 122.299 286.976 122.511 287.238 122.511C291.942 125.266 295.601 128.233 298.737 132.895C302.396 138.193 303.18 144.975 303.703 151.12C303.703 153.24 303.964 157.054 303.703 160.657C302.396 162.776 300.828 164.895 298.215 165.955C295.078 167.226 291.681 167.438 288.545 167.438C285.67 167.438 282.533 167.65 279.658 167.65H279.397C277.568 167.226 275.477 166.802 273.386 165.955C272.079 164.895 270.772 163.624 269.727 162.14C266.852 157.902 266.329 152.816 265.545 147.942C265.023 144.127 264.5 140.312 263.716 136.498C264.239 131.412 267.898 127.597 272.863 124.63Z" fill="white" stroke="#007755" stroke-miterlimit="10"/>
<path d="M269.988 116.155C273.124 114.459 279.397 110.645 282.533 114.247C282.533 114.247 282.533 114.459 282.794 114.459C286.976 116.79 290.373 119.121 293.248 122.936C296.385 127.386 297.43 132.896 297.691 137.982C297.953 140.949 298.475 144.34 296.385 147.095C294.555 149.638 291.419 150.697 288.021 151.121C281.487 151.969 272.863 152.181 268.158 147.73C264.499 144.34 264.238 139.254 263.454 135.015C262.931 131.837 262.408 128.658 261.886 125.691C262.147 121.664 265.545 118.486 269.988 116.155Z" fill="white" stroke="#007755" stroke-miterlimit="10"/>
<path d="M269.988 116.155C273.124 114.459 279.397 110.645 282.533 114.247C282.533 114.247 282.533 114.459 282.794 114.459C286.976 116.79 290.373 119.121 293.248 122.936C296.385 127.386 297.43 132.896 297.691 137.982C297.953 140.949 298.475 144.34 296.385 147.095C294.555 149.638 291.419 150.697 288.021 151.121C281.487 151.969 272.863 152.181 268.158 147.73C264.499 144.34 264.238 139.254 263.454 135.015C262.931 131.837 262.408 128.658 261.886 125.691C262.147 121.664 265.545 118.486 269.988 116.155Z" fill="white" stroke="#007755" stroke-miterlimit="10"/>
<path d="M263.193 101.954C266.329 100.047 271.818 96.2326 274.954 99.8352C274.954 99.8352 274.954 100.047 275.215 100.047C279.397 102.166 282.533 104.497 285.147 108.312C288.283 112.762 289.328 118.272 289.851 123.358C290.112 125.265 290.374 128.232 290.112 131.199C289.067 132.895 287.76 134.59 285.669 135.649C283.056 136.709 280.181 136.921 277.567 136.921C274.954 136.921 272.602 137.345 269.988 137.345H269.727C268.159 137.133 266.329 136.709 264.761 136.073C263.454 135.226 262.409 134.166 261.625 132.895C259.011 129.504 258.489 125.265 257.704 121.239C257.182 118.06 256.398 115.093 255.875 111.915C255.875 107.676 258.75 104.709 263.193 101.954Z" fill="white" stroke="#007755" stroke-miterlimit="10"/>
<path d="M263.193 101.954C266.329 100.047 271.818 96.2326 274.954 99.8352C274.954 99.8352 274.954 100.047 275.215 100.047C279.397 102.166 282.533 104.497 285.147 108.312C288.283 112.762 289.328 118.272 289.851 123.358C290.112 125.265 290.374 128.232 290.112 131.199C289.067 132.895 287.76 134.59 285.669 135.649C283.056 136.709 280.181 136.921 277.567 136.921C274.954 136.921 272.602 137.345 269.988 137.345H269.727C268.159 137.133 266.329 136.709 264.761 136.073C263.454 135.226 262.409 134.166 261.625 132.895C259.011 129.504 258.489 125.265 257.704 121.239C257.182 118.06 256.398 115.093 255.875 111.915C255.875 107.676 258.75 104.709 263.193 101.954Z" fill="white" stroke="#007755" stroke-miterlimit="10"/>
<path d="M261.102 119.121C259.273 118.273 257.704 117.002 256.659 115.518C253.523 111.28 250.909 106.194 250.909 101.32C250.909 96.4457 251.955 90.0881 253 85.214C253.784 82.671 255.875 79.916 260.057 79.916C265.806 82.671 272.863 87.5451 276.522 96.6576C278.09 100.26 280.442 104.922 280.442 108.737C280.442 112.763 277.306 116.79 272.863 118.273C269.204 119.121 265.022 119.545 261.102 119.121Z" fill="white" stroke="#007755" stroke-miterlimit="10"/>
<path d="M261.102 119.121C259.273 118.273 257.704 117.002 256.659 115.518C253.523 111.28 250.909 106.194 250.909 101.32C250.909 96.4457 251.955 90.0881 253 85.214C253.784 82.671 255.875 79.916 260.057 79.916C265.806 82.671 272.863 87.5451 276.522 96.6576C278.09 100.26 280.442 104.922 280.442 108.737C280.442 112.763 277.306 116.79 272.863 118.273C269.204 119.121 265.022 119.545 261.102 119.121Z" fill="white" stroke="#007755" stroke-miterlimit="10"/>
<path opacity="0.7" d="M273.909 171.464C274.432 171.464 275.216 171.252 275.739 171.252C279.398 171.676 282.795 172.947 286.193 174.219C287.238 174.643 288.545 175.278 290.113 175.49C291.943 176.338 293.511 176.974 295.602 177.398C296.908 177.609 298.476 177.821 300.045 177.398C301.09 177.186 302.397 176.338 303.704 176.126C303.181 177.398 300.567 178.669 299.261 178.881C297.431 179.305 295.863 178.669 294.295 178.033C293.772 177.821 293.249 177.609 292.727 177.398C292.988 178.033 293.249 178.669 293.511 179.093C293.511 178.669 293.772 179.305 293.772 179.305C294.033 179.517 294.556 179.941 294.818 180.152C295.34 180.364 296.124 181.212 296.908 181.424C295.34 181.212 294.033 180.788 292.465 180.364C291.943 179.941 291.42 179.517 291.159 178.881C290.636 178.245 290.636 177.186 290.113 176.55C290.113 176.55 290.113 176.338 289.852 176.338C289.329 176.126 288.545 175.914 288.022 175.49C286.977 175.702 285.67 175.702 284.363 175.914C283.318 175.914 282.273 175.914 281.227 175.914C279.398 175.914 277.829 175.49 276 175.066C277.829 174.643 280.182 174.643 282.011 174.431C283.057 174.431 284.102 174.431 285.147 174.431C281.488 173.159 277.829 171.888 273.909 171.464Z" fill="white" stroke="#007755" stroke-miterlimit="10"/>
<path opacity="0.5" d="M232.615 78.4337C231.569 81.8244 232.354 85.6389 232.092 89.2415C232.092 91.9965 231.569 94.7514 231.047 97.5063C223.99 89.4534 228.956 80.5529 228.956 80.5529C228.956 80.5529 231.308 76.7383 235.228 74.6191C233.922 75.8907 232.876 77.3741 232.615 78.4337Z" fill="white" stroke="#007755" stroke-miterlimit="10"/>
<path d="M228.955 77.3734C228.955 77.3734 236.535 64.0225 246.466 71.2277C256.659 78.433 262.148 95.8104 256.398 101.32C250.648 106.83 239.671 106.618 231.569 97.2938C223.467 87.9694 228.955 77.3734 228.955 77.3734Z" fill="white" stroke="#007755" stroke-miterlimit="10"/>
<path d="M204.127 62.7498C205.434 61.4782 206.74 60.2067 208.309 59.1471C212.229 57.6637 218.24 57.4518 225.035 63.8094C237.319 75.6769 227.91 94.7497 226.603 94.3258C225.297 93.6901 205.172 96.445 200.729 87.9682C197.854 82.6702 199.423 74.1934 200.991 68.6835C202.036 66.5643 203.082 64.869 204.127 62.7498Z" fill="white" stroke="#007755" stroke-miterlimit="10"/>
<path d="M169.105 59.5711C169.105 59.5711 174.332 48.9752 188.707 53.4255C203.081 57.8758 200.207 83.0941 200.207 83.0941C200.207 83.0941 200.468 89.2397 193.673 89.8754C186.877 90.5112 164.662 91.1469 164.924 87.1205C165.185 83.0941 164.401 64.4453 169.105 59.5711Z" fill="white" stroke="#007755" stroke-miterlimit="10"/>
<path opacity="0.7" d="M272.602 156.843C272.34 156.631 272.34 156.419 272.079 156.419C273.909 156.631 275.738 156.631 277.568 156.419C277.829 156.419 277.829 156.419 278.09 156.207C279.397 155.995 280.704 155.571 282.011 155.359C282.533 155.359 283.056 155.359 283.579 155.571C285.147 155.995 287.238 157.267 289.328 157.691C292.203 158.75 294.556 158.114 296.908 156.631C294.556 158.962 292.726 159.598 289.067 158.326C288.283 157.902 287.499 157.479 286.454 157.055C285.931 158.326 284.363 159.386 284.101 160.657C283.84 162.141 285.147 163.412 285.408 164.684C285.147 164.472 284.885 164.472 284.624 164.26C284.101 163.2 283.317 162.353 282.795 161.505C282.533 161.717 282.533 161.929 282.272 162.141C281.749 162.777 280.704 163.412 279.92 163.624C279.136 164.048 277.829 163.624 277.045 163.412C277.306 163.412 277.568 163.2 277.829 163.2C279.92 162.777 282.011 161.717 282.272 160.022C282.272 159.81 282.272 159.598 282.272 159.598C282.272 158.538 283.056 157.902 284.101 157.267C284.101 157.267 284.101 157.267 284.101 157.055C283.317 156.843 282.272 156.631 282.533 156.631C280.704 156.843 279.136 157.479 277.045 157.479C275.477 157.691 273.909 157.479 272.602 156.843Z" fill="white" stroke="#007755" stroke-miterlimit="10"/>
<path opacity="0.7" d="M277.045 144.55C277.045 144.338 277.045 144.126 276.783 144.126C274.693 143.702 271.556 142.007 269.204 142.007C269.988 141.795 270.772 141.583 271.556 141.583C272.602 141.795 273.386 142.007 274.431 142.431C275.477 142.855 276.522 142.855 277.306 142.855C277.829 142.855 278.352 142.855 278.874 142.855C281.488 142.643 283.317 140.947 284.885 139.252C284.885 139.252 284.885 139.252 284.885 139.464C284.363 140.312 284.101 141.371 283.579 142.431C282.533 144.338 284.624 145.186 286.192 146.033C286.976 146.245 287.499 146.881 288.022 147.305C288.022 147.729 288.022 148.152 287.76 148.364C287.499 148.152 287.238 147.941 287.499 147.729C288.022 146.669 284.885 146.245 284.101 145.821C283.056 145.398 282.533 144.55 282.011 143.702C281.749 143.49 281.749 143.278 281.488 142.855C280.442 143.702 279.136 144.126 277.567 144.338C277.829 144.762 278.09 145.186 277.829 145.609C277.567 146.033 276.783 146.245 276.261 146.457C275.999 146.457 275.738 146.669 275.738 146.669C275.738 146.669 275.477 146.669 275.477 146.881L275.215 147.093C275.215 146.669 275.477 146.245 275.999 145.821C276.522 145.609 276.783 145.186 277.045 144.55Z" fill="white" stroke="#007755" stroke-miterlimit="10"/>
<path opacity="0.7" d="M271.557 129.293C271.818 129.081 271.557 128.657 271.034 128.657C268.682 128.657 266.853 127.81 264.762 127.174C264.762 127.174 264.762 127.174 265.023 127.174C267.114 127.598 269.466 128.022 271.296 127.386C271.557 127.386 271.818 127.174 272.08 126.962C273.386 126.326 274.432 125.479 275.477 124.631C274.955 125.69 274.432 126.538 274.693 127.598C274.955 128.657 275.739 129.293 276.784 129.929C278.614 130.988 279.659 132.26 279.659 133.955C278.875 131.836 277.045 131.2 275.216 130.141C274.432 129.717 274.171 128.869 273.648 128.233C273.648 128.445 273.909 128.657 273.909 128.657C273.648 129.293 273.386 129.717 272.864 130.141C272.602 130.353 272.08 130.565 271.818 130.988C271.818 131.2 271.557 131.624 271.557 131.836C271.557 132.048 271.034 132.26 270.773 132.472C270.25 132.684 269.989 133.32 269.466 133.531C269.466 133.531 269.466 133.531 269.205 133.531C270.25 132.048 270.773 130.565 271.557 129.293Z" fill="white" stroke="#007755" stroke-miterlimit="10"/>
<path opacity="0.6" d="M240.978 66.1406C244.376 65.293 247.512 66.7764 249.864 68.6837C251.955 70.1671 255.091 72.9221 255.091 75.4651C255.091 75.677 255.091 75.677 254.83 75.4651C254.83 75.4651 254.568 75.4651 254.568 75.2532C253 73.5578 251.955 71.8625 250.125 70.1671C249.08 69.3194 247.773 68.4718 246.466 68.0479C245.16 67.6241 243.592 67.836 242.285 67.4122C241.501 67.4122 239.933 66.3526 240.978 66.1406Z" fill="white" stroke="#007755" stroke-miterlimit="10"/>
<path opacity="0.6" d="M212.228 55.7574C214.842 54.6978 217.978 54.4859 220.592 55.3336C222.683 55.9694 225.819 58.0886 226.864 59.7839C227.126 60.4197 226.342 60.6316 225.819 59.7839C224.773 58.3005 221.899 56.817 219.808 56.6051C217.717 56.1813 215.365 57.029 213.274 56.817C212.751 56.817 211.706 55.9694 212.228 55.7574Z" fill="white" stroke="#007755" stroke-miterlimit="10"/>
<path opacity="0.6" d="M180.605 49.8234C185.832 47.4923 193.15 50.883 196.547 54.0619C196.809 54.2738 197.07 54.6976 196.547 54.6976C194.979 54.6976 193.15 52.7903 191.843 52.1546C188.707 50.6711 185.048 51.095 181.65 51.095C181.128 51.095 180.082 50.2473 180.605 49.8234Z" fill="white" stroke="#007755" stroke-miterlimit="10"/>
<path opacity="0.6" d="M266.33 80.3398C273.125 83.0948 278.614 90.0881 280.182 96.0218C280.443 96.6576 279.398 96.0218 279.398 95.8099C276.261 90.3 272.602 84.7901 266.591 80.7637C266.33 80.7637 266.069 80.3398 266.33 80.3398Z" fill="white" stroke="#007755" stroke-miterlimit="10"/>
<path opacity="0.6" d="M286.977 106.618C288.545 108.102 289.852 109.373 290.897 111.281C291.681 112.764 292.727 115.095 291.943 116.579C291.943 116.79 291.681 116.579 291.42 116.579C291.159 116.579 291.159 116.367 291.159 116.155C290.375 114.459 289.852 112.764 289.068 111.069C288.284 109.585 287.238 108.314 286.193 107.042C285.67 106.194 286.454 106.194 286.977 106.618Z" fill="white" stroke="#007755" stroke-miterlimit="10"/>
<path opacity="0.6" d="M297.431 123.572C298.999 125.055 300.567 127.599 300.306 129.506C300.306 129.718 300.306 129.718 300.306 129.718C300.044 129.93 299.783 129.506 299.783 129.294C299.26 128.234 298.737 126.963 298.215 125.903C297.692 125.055 296.908 124.208 296.908 123.36C296.646 123.148 297.431 123.572 297.431 123.572Z" fill="white" stroke="#007755" stroke-miterlimit="10"/>
<path opacity="0.6" d="M303.703 137.135C303.703 137.135 303.441 136.711 303.703 136.711H303.964C304.225 136.711 304.225 136.923 304.225 136.923C305.009 137.559 305.532 139.466 305.794 139.89C306.578 142.645 307.623 146.035 306.316 148.79C306.055 149.214 305.271 148.366 305.271 148.154C304.487 145.823 304.748 143.492 304.225 141.161C303.964 140.102 303.703 139.042 303.441 137.771C303.441 137.559 303.18 136.711 303.703 137.135Z" fill="white" stroke="#007755" stroke-miterlimit="10"/>
<path d="M323.044 228.892C326.441 205.581 340.032 93.4754 297.431 41.5552C256.66 -8.24586 184.526 0.230914 164.402 4.04546C144.277 0.230914 71.8821 -8.24586 31.3721 41.3433C-11.2287 93.4754 2.36178 205.581 5.75939 228.892C6.8048 236.733 5.23668 245.845 5.49803 253.686C5.75939 268.521 6.54345 283.143 9.41835 297.766C15.6909 329.977 24.5769 362.825 55.1554 386.136C73.9729 400.758 106.12 404.785 130.687 409.023C141.664 410.931 153.163 411.566 164.402 411.566C175.64 411.566 187.139 410.931 198.116 409.023C222.422 404.997 254.83 400.758 273.648 386.136C303.965 362.613 312.851 329.977 319.385 297.766C322.26 283.143 323.305 268.521 323.305 253.686C323.305 245.633 321.737 236.733 323.044 228.892ZM277.307 334.004C243.331 365.156 194.196 371.09 166.231 371.514C165.708 371.514 164.924 371.514 164.402 371.514C163.618 371.514 163.095 371.514 162.572 371.514C134.607 371.09 85.4725 365.156 51.4964 334.004C18.8271 304.123 13.3387 258.349 12.5546 233.766C12.816 232.706 13.0773 231.435 13.3387 229.74C14.6454 217.236 9.94106 99.833 60.3825 63.5948C85.2112 45.7936 123.892 42.4029 164.14 42.4029C204.389 42.4029 243.069 45.7936 267.898 63.5948C318.339 99.833 313.635 217.236 314.942 229.74C315.203 231.435 315.465 232.706 315.726 233.766C315.203 258.349 309.976 304.123 277.307 334.004Z" fill="white" stroke="#C4C4C4" stroke-width="2" stroke-miterlimit="10"/>
<path opacity="0.4" d="M323.044 228.892C326.441 205.581 340.032 93.4754 297.431 41.5552C256.66 -8.24586 184.526 0.230914 164.402 4.04546C144.277 0.230914 71.8821 -8.24586 31.3721 41.3433C-11.2287 93.4754 2.36178 205.581 5.75939 228.892C6.8048 236.733 5.23668 245.845 5.49803 253.686C5.75939 268.521 6.54345 283.143 9.41835 297.766C15.6909 329.977 24.5769 362.825 55.1554 386.136C73.9729 400.758 106.12 404.785 130.687 409.023C141.664 410.931 153.163 411.566 164.402 411.566C175.64 411.566 187.139 410.931 198.116 409.023C222.422 404.997 254.83 400.758 273.648 386.136C303.965 362.613 312.851 329.977 319.385 297.766C322.26 283.143 323.305 268.521 323.305 253.686C323.305 245.633 321.737 236.733 323.044 228.892ZM277.307 334.004C243.331 365.156 194.196 371.09 166.231 371.514C165.708 371.514 164.924 371.514 164.402 371.514C163.618 371.514 163.095 371.514 162.572 371.514C134.607 371.09 85.4725 365.156 51.4964 334.004C18.8271 304.123 13.3387 258.349 12.5546 233.766C12.816 232.706 13.0773 231.435 13.3387 229.74C14.6454 217.236 9.94106 99.833 60.3825 63.5948C85.2112 45.7936 123.892 42.4029 164.14 42.4029C204.389 42.4029 243.069 45.7936 267.898 63.5948C318.34 99.833 313.635 217.236 314.942 229.74C315.203 231.435 315.465 232.706 315.726 233.766C315.203 258.349 309.976 304.123 277.307 334.004Z" fill="#F4F4F4" stroke="#C4C4C4" stroke-width="2" stroke-miterlimit="10"/>
<defs>
<linearGradient id="paint0_linear" x1="96.3418" y1="285.193" x2="111.747" y2="249.066" gradientUnits="userSpaceOnUse">
<stop stop-color="white"/>
<stop offset="0.5363" stop-color="white"/>
<stop offset="1"/>
</linearGradient>
</defs>
</svg>
