<svg width="329" height="413" viewBox="0 0 329 413" fill="none" xmlns="http://www.w3.org/2000/svg">
<path d="M152.591 24.8758C150.238 25.2948 50.0926 28.6466 30.7434 94.636C11.1328 160.416 0.673803 259.295 18.1926 307.688C35.7115 355.87 83.2999 396.93 192.335 389.598C297.709 382.685 300.847 333.036 312.875 289.043C324.903 245.05 316.274 205.247 316.274 205.247C316.274 205.247 322.027 -11.366 152.591 24.8758Z" fill="white" stroke="black" stroke-width="0.25" stroke-miterlimit="10"/>
<path d="M152.591 24.8758C150.238 25.2948 50.0926 28.6466 30.7434 94.636C11.1328 160.416 0.673803 259.295 18.1926 307.688C35.7115 355.87 83.2999 396.93 192.335 389.598C297.709 382.685 300.847 333.036 312.875 289.043C324.903 245.05 316.274 205.247 316.274 205.247C316.274 205.247 322.027 -11.366 152.591 24.8758Z" fill="white" stroke="black" stroke-width="0.25" stroke-miterlimit="10"/>
<path opacity="0.4" d="M311.543 253.46C302.396 244.519 290.373 237.696 277.306 234.402C270.772 232.755 263.977 232.05 257.443 232.52C249.341 233.226 241.239 234.638 233.137 235.579C201.774 240.049 170.412 245.46 138.526 246.401C122.322 246.872 106.118 246.166 89.9145 244.99C82.5965 244.519 75.0172 244.049 67.6993 242.166C60.9041 240.284 53.8475 237.461 46.5296 237.931C33.9846 239.108 22.7463 245.931 14.1216 253.93C13.0762 254.871 12.0308 256.048 10.9854 256.989C12.2921 272.517 14.9057 286.398 18.5646 297.692C36.0754 351.805 83.6419 397.92 192.627 389.685C297.953 381.921 301.089 326.16 313.111 276.752C314.679 270.635 315.725 264.753 316.77 258.871C315.202 256.989 313.373 255.107 311.543 253.46Z" fill="white" stroke="black" stroke-width="0.25" stroke-miterlimit="10"/>
<path d="M249.284 137.191C229.422 109.193 188.127 129.427 158.594 130.368C128.8 129.663 98.2215 109.429 78.3586 137.191C40.2008 190.599 60.8478 234.596 60.8478 234.596L65.2908 242.595L163.822 239.537L262.352 242.595L266.795 234.596C266.795 234.596 287.181 190.599 249.284 137.191Z" fill="#F4F4F4" stroke="#C4C4C4" stroke-width="2" stroke-miterlimit="10"/>
<path d="M262.875 184.483C257.909 161.661 235.171 135.546 207.206 136.722C196.491 137.192 179.503 139.545 172.708 148.015C168.787 153.191 169.571 158.838 170.094 164.72C170.617 169.896 171.139 176.719 167.48 181.189C163.56 185.895 155.981 184.483 153.367 179.542C150.231 172.955 152.583 165.896 152.583 159.073C152.322 152.721 149.447 146.368 144.481 141.663C137.686 135.546 125.925 137.663 117.3 138.134C101.096 138.839 85.9379 146.133 75.745 157.426C68.9498 164.72 64.5068 175.072 62.4159 184.483C52.7458 228.715 84.6311 263.771 84.6311 263.771H240.66C240.66 263.771 272.545 228.715 262.875 184.483Z" fill="#E7E5E6" stroke="#C4C4C4" stroke-width="2" stroke-miterlimit="10"/>
<path d="M265.488 216.244C264.704 173.423 194.4 184.011 178.196 189.422C171.923 191.54 155.458 191.54 148.924 189.422C132.982 184.011 62.6773 173.188 61.8932 216.244C61.1091 257.888 83.0629 304.002 153.106 307.531C157.026 308.002 160.947 308.002 163.56 308.002C166.435 308.002 170.094 308.002 174.014 307.531C244.319 304.002 266.272 257.888 265.488 216.244Z" fill="#F4F4F4" stroke="#C4C4C4" stroke-width="2" stroke-miterlimit="10"/>
<path opacity="0.3" d="M265.488 216.244C264.704 173.423 194.4 184.011 178.196 189.422C171.923 191.54 155.458 191.54 148.924 189.422C132.982 184.011 62.6773 173.188 61.8932 216.244C61.1091 257.888 83.0629 304.002 153.106 307.531C157.026 308.002 160.947 308.002 163.56 308.002C166.435 308.002 170.094 308.002 174.014 307.531C244.319 304.002 266.272 257.888 265.488 216.244Z" fill="#F4F4F4" stroke="#C4C4C4" stroke-width="2" stroke-miterlimit="10"/>
<mask id="mask0" style="mask-type:alpha" maskUnits="userSpaceOnUse" x="74" y="194" width="84" height="95">
<path d="M87.5056 194.833C87.5056 194.833 78.0969 194.597 75.222 208.243C72.3471 221.889 69.7335 283.767 148.14 288.473C148.14 288.473 160.424 290.12 156.503 287.296C152.583 284.473 118.084 279.062 108.153 258.357C88.2897 217.184 117.561 192.95 87.5056 194.833Z" fill="url(#paint0_linear)"/>
</mask>
<g mask="url(#mask0)">
</g>
<path d="M323.044 228.892C326.441 205.581 340.032 93.4754 297.431 41.5552C256.66 -8.24586 184.526 0.230914 164.402 4.04546C144.277 0.230914 71.8821 -8.24586 31.3721 41.3433C-11.2287 93.4754 2.36178 205.581 5.75939 228.892C6.8048 236.733 5.23668 245.845 5.49803 253.686C5.75939 268.521 6.54345 283.143 9.41835 297.766C15.6909 329.977 24.5769 362.825 55.1554 386.136C73.9729 400.758 106.12 404.785 130.687 409.023C141.664 410.931 153.163 411.566 164.402 411.566C175.64 411.566 187.139 410.931 198.116 409.023C222.422 404.997 254.83 400.758 273.648 386.136C303.965 362.613 312.851 329.977 319.385 297.766C322.26 283.143 323.305 268.521 323.305 253.686C323.305 245.633 321.737 236.733 323.044 228.892ZM277.307 334.004C243.331 365.156 194.196 371.09 166.231 371.514C165.708 371.514 164.924 371.514 164.402 371.514C163.618 371.514 163.095 371.514 162.572 371.514C134.607 371.09 85.4725 365.156 51.4964 334.004C18.8271 304.123 13.3387 258.349 12.5546 233.766C12.816 232.706 13.0773 231.435 13.3387 229.74C14.6454 217.236 9.94106 99.833 60.3825 63.5948C85.2112 45.7936 123.892 42.4029 164.14 42.4029C204.389 42.4029 243.069 45.7936 267.898 63.5948C318.339 99.833 313.635 217.236 314.942 229.74C315.203 231.435 315.465 232.706 315.726 233.766C315.203 258.349 309.976 304.123 277.307 334.004Z" fill="white" stroke="#C4C4C4" stroke-width="2" stroke-miterlimit="10"/>
<path opacity="0.4" d="M323.044 228.892C326.441 205.581 340.032 93.4754 297.431 41.5552C256.66 -8.24586 184.526 0.230914 164.402 4.04546C144.277 0.230914 71.8821 -8.24586 31.3721 41.3433C-11.2287 93.4754 2.36178 205.581 5.75939 228.892C6.8048 236.733 5.23668 245.845 5.49803 253.686C5.75939 268.521 6.54345 283.143 9.41835 297.766C15.6909 329.977 24.5769 362.825 55.1554 386.136C73.9729 400.758 106.12 404.785 130.687 409.023C141.664 410.931 153.163 411.566 164.402 411.566C175.64 411.566 187.139 410.931 198.116 409.023C222.422 404.997 254.83 400.758 273.648 386.136C303.965 362.613 312.851 329.977 319.385 297.766C322.26 283.143 323.305 268.521 323.305 253.686C323.305 245.633 321.737 236.733 323.044 228.892ZM277.307 334.004C243.331 365.156 194.196 371.09 166.231 371.514C165.708 371.514 164.924 371.514 164.402 371.514C163.618 371.514 163.095 371.514 162.572 371.514C134.607 371.09 85.4725 365.156 51.4964 334.004C18.8271 304.123 13.3387 258.349 12.5546 233.766C12.816 232.706 13.0773 231.435 13.3387 229.74C14.6454 217.236 9.94106 99.833 60.3825 63.5948C85.2112 45.7936 123.892 42.4029 164.14 42.4029C204.389 42.4029 243.069 45.7936 267.898 63.5948C318.34 99.833 313.635 217.236 314.942 229.74C315.203 231.435 315.465 232.706 315.726 233.766C315.203 258.349 309.976 304.123 277.307 334.004Z" fill="#F4F4F4" stroke="#C4C4C4" stroke-width="2" stroke-miterlimit="10"/>
<defs>
<linearGradient id="paint0_linear" x1="96.3418" y1="285.193" x2="111.747" y2="249.066" gradientUnits="userSpaceOnUse">
<stop stop-color="white"/>
<stop offset="0.5363" stop-color="white"/>
<stop offset="1"/>
</linearGradient>
</defs>
</svg>
