<svg width="215" height="215" viewBox="0 0 215 215" fill="none" xmlns="http://www.w3.org/2000/svg">
<path d="M188.125 107.5C188.125 62.9883 152.012 26.875 107.5 26.875C62.9883 26.875 26.875 62.9883 26.875 107.5C26.875 152.012 62.9883 188.125 107.5 188.125C152.012 188.125 188.125 152.012 188.125 107.5Z" stroke="white" stroke-width="6" stroke-miterlimit="10"/>
<path d="M90.8376 140.439L138.898 111.405C139.568 110.997 140.121 110.424 140.505 109.74C140.89 109.056 141.091 108.285 141.091 107.5C141.091 106.716 140.89 105.945 140.505 105.261C140.121 104.577 139.568 104.003 138.898 103.595L90.8376 74.5615C90.1487 74.1488 89.3624 73.9268 88.5594 73.9182C87.7564 73.9097 86.9656 74.1149 86.2681 74.5128C85.5706 74.9107 84.9914 75.487 84.5901 76.1826C84.1888 76.8782 83.9798 77.668 83.9845 78.471V136.529C83.9798 137.332 84.1888 138.122 84.5901 138.818C84.9914 139.513 85.5706 140.09 86.2681 140.488C86.9656 140.886 87.7564 141.091 88.5594 141.082C89.3624 141.074 90.1487 140.852 90.8376 140.439Z" fill="white"/>
</svg>
