<svg width="212" height="212" viewBox="0 0 212 212" fill="none" xmlns="http://www.w3.org/2000/svg">
<g opacity="0.5">
<path d="M106.099 178.107L68.9285 138.813L80.9605 127.431L106.066 153.971L131.023 127.447L143.086 138.797L106.099 178.107ZM174.734 162.312V49.6875C174.734 22.2898 152.445 0 125.047 0H86.9531C59.5555 0 37.2656 22.2898 37.2656 49.6875V162.312C37.2656 189.71 59.5555 212 86.9531 212H125.047C152.445 212 174.734 189.71 174.734 162.312ZM125.047 9.5C143.313 9.5 165.595 21 166.359 50.1016V162.312C166.359 189.892 142.766 204 124.5 204H86.9531C68.6875 204 47.5 188.5 45.5 162.312V50.1016C51.5 17.5 68.6875 9.5 86.9531 9.5H125.047ZM106 33.5391C101.426 33.5391 97.7188 37.2462 97.7188 41.8203C97.7188 46.3944 101.426 50.1016 106 50.1016C110.574 50.1016 114.281 46.3944 114.281 41.8203C114.281 37.2462 110.574 33.5391 106 33.5391ZM106 66.6641C101.426 66.6641 97.7188 70.3712 97.7188 74.9453C97.7188 79.5194 101.426 83.2266 106 83.2266C110.574 83.2266 114.281 79.5194 114.281 74.9453C114.281 70.3712 110.574 66.6641 106 66.6641ZM106 99.7891C101.426 99.7891 97.7188 103.496 97.7188 108.07C97.7188 112.644 101.426 116.352 106 116.352C110.574 116.352 114.281 112.644 114.281 108.07C114.281 103.496 110.574 99.7891 106 99.7891Z" fill="white"/>
</g>
</svg>
