<svg width="96" height="96" viewBox="0 0 96 96" fill="none" xmlns="http://www.w3.org/2000/svg">
<path d="M76.3125 0H19.6875C8.83181 0 0 8.83181 0 19.6875V76.3125C0 87.1682 8.83181 96 19.6875 96H76.3125C87.1682 96 96 87.1682 96 76.3125V19.6875C96 8.83181 87.1682 0 76.3125 0ZM73.3714 69.3542L71.865 71.8648C66.0071 77.7227 50.5738 71.7866 37.3935 58.6065C24.2134 45.4264 18.2773 29.9931 24.1352 24.135L26.6458 22.6286C28.9204 21.264 31.8707 22.0014 33.2353 24.276L36.7899 30.2002C37.9239 32.0901 37.626 34.509 36.0677 36.0675C33.8709 38.2643 33.8709 41.8258 36.0677 44.0224L51.9776 59.9323C54.1744 62.1291 57.7359 62.1291 59.9325 59.9323C61.4908 58.3738 63.9099 58.0761 65.7998 59.2099L71.724 62.7645C73.9984 64.1293 74.736 67.0796 73.3714 69.3542Z" fill="white"/>
</svg>
