<svg width="28" height="28" viewBox="0 0 28 28" fill="none" xmlns="http://www.w3.org/2000/svg">
<g clip-path="url(#clip0)">
<path d="M20.7392 15.8267L20.165 16.4007C19.0494 17.5164 17.6878 18.8781 16.6705 19.8954C15.276 18.9601 13.7119 17.7405 12.3667 16.3954C12.2353 16.264 12.1206 16.1493 11.9894 16.0014C10.6276 14.6234 8.95959 12.6493 8.0408 11.3203C9.12366 10.2375 10.6494 8.72821 11.5681 7.80942L12.1424 7.21875L4.89071 0L1.33068 3.52734C0.296962 4.56085 -0.12943 5.9556 0.0346328 7.69449C0.395442 11.4352 3.68759 16.4774 7.57596 20.4149C9.3313 22.2031 11.3876 23.8655 13.2088 25.0796C16.0799 27.0156 18.7049 28 20.8377 28C22.2978 28 23.5283 27.5405 24.48 26.6055L27.9909 23.0781L20.7392 15.8267Z" fill="#00C58A"/>
<path d="M27.9901 23.0786L24.4792 26.6059C23.5275 27.541 22.297 28.0005 20.8369 28.0005C18.7041 28.0005 16.0791 27.0161 13.208 25.08C11.3869 23.866 9.33054 22.2036 7.5752 20.4153L11.9884 16.0019C12.1198 16.1497 12.2345 16.2644 12.3659 16.3958C13.7111 17.741 15.2752 18.9606 16.6698 19.8958C17.687 18.8785 19.0487 17.5169 20.1642 16.4012L20.7384 15.8271L27.9901 23.0786Z" fill="#00C58A"/>
</g>
<defs>
<clipPath id="clip0">
<rect width="28" height="28" fill="white"/>
</clipPath>
</defs>
</svg>
