<svg width="291" height="108" viewBox="0 0 291 108" fill="none" xmlns="http://www.w3.org/2000/svg">
<path d="M33.6431 106.818V72.5642L58.6316 0H48.0253L28.5097 57.9574L11.5821 10.0368H0L22.9944 72.1798V106.818H33.6431Z" fill="#FF0000"/>
<path d="M79.6326 93.4496C77.7235 96.3966 74.1173 98.8311 70.4688 98.8311C65.0808 98.8311 62.5353 93.7059 62.5353 85.8473C62.5353 77.049 65.3778 71.2405 78.4023 71.2405H79.6326V93.4496ZM89.9843 91.3995V59.3244C89.9843 42.7956 83.366 37.6704 71.4021 37.6704C64.5717 37.6704 58.3776 40.4893 55.2806 43.0519L57.2745 52.4054C60.7958 49.2876 65.3778 46.4687 70.7233 46.4687C76.6628 46.4687 79.6326 50.2272 79.6326 59.1963V63.2537H78.1477C59.1837 63.2537 51.7593 72.4363 51.7593 87.0858C51.7593 100.497 58.3776 107.8 68.0505 107.8C73.9901 107.8 77.7235 105.195 80.6932 101.436H81.372C81.4993 103.188 81.9236 105.366 82.3054 106.818H91.1722C90.6631 103.572 89.9843 97.8915 89.9843 91.3995ZM113.53 53.9002C115.949 50.5261 119.682 47.152 124.137 47.152C128.167 47.152 130.458 48.9032 130.458 54.0284V106.818H141.064V53.0887C141.064 42.6675 136.355 37.6704 127.488 37.6704C121.167 37.6704 116.076 41.856 114.167 44.4186H113.53V38.4819H103.009V106.818H113.53V53.9002ZM171.992 107.8C177.507 107.8 181.283 105.195 184.253 101.436H184.932L185.738 106.818H193.544V10.0371H183.023V40.233C181.029 38.7382 177.677 37.6704 174.453 37.6704C160.834 37.6704 151.416 49.9709 151.416 75.2979C151.416 96.3966 158.713 107.8 171.992 107.8ZM183.023 93.5778C181.283 96.2685 178.483 98.8311 173.222 98.8311C165.544 98.8311 162.616 89.0932 162.616 73.1197C162.616 59.1963 166.647 46.3406 175.089 46.3406C178.61 46.3406 180.901 47.4083 183.023 49.5865V93.5778ZM242.885 102.248L240.466 94.133C237.794 96.0122 233.466 98.7029 227.569 98.7029C219.211 98.7029 214.926 90.5881 214.926 75.1698H243.139V69.3185C243.139 46.1697 235.757 37.6704 224.472 37.6704C210.09 37.6704 204.023 53.644 204.023 75.5542C204.023 96.5675 212.635 107.8 226.593 107.8C233.339 107.8 238.6 105.622 242.885 102.248ZM224.472 46.3406C230.496 46.3406 232.406 54.8398 232.406 66.4997H215.054C215.732 54.3273 218.023 46.3406 224.472 46.3406ZM278.522 38.6101L269.231 63.3818L260.491 38.6101H249.63L262.4 71.4967L248.273 106.818H258.624L268.849 78.672L279.328 106.818H290.231L276.103 70.5571L288.746 38.6101H278.522Z" fill="black"/>
</svg>
