<svg width="29" height="29" viewBox="0 0 29 29" fill="none" xmlns="http://www.w3.org/2000/svg">
<mask id="path-1-inside-1" fill="white">
<path d="M22.4131 26.7946C22.2251 26.7953 22.0416 26.7367 21.8889 26.6271L14.7095 21.4222L7.53019 26.6271C7.37681 26.7383 7.19202 26.7979 7.00254 26.7972C6.81307 26.7965 6.62872 26.7356 6.47615 26.6233C6.32358 26.5109 6.21069 26.3529 6.15382 26.1722C6.09694 25.9914 6.09902 25.7973 6.15974 25.6178L8.95981 17.3242L1.70286 12.3477C1.54567 12.24 1.42704 12.0849 1.36428 11.905C1.30153 11.725 1.29796 11.5298 1.35408 11.3477C1.4102 11.1656 1.52307 11.0063 1.67622 10.8929C1.82936 10.7795 2.01474 10.7181 2.20527 10.7176H11.1581L13.8599 2.40285C13.9181 2.22334 14.0317 2.06687 14.1843 1.9559C14.337 1.84493 14.5208 1.78516 14.7095 1.78516C14.8983 1.78516 15.0821 1.84493 15.2348 1.9559C15.3874 2.06687 15.501 2.22334 15.5592 2.40285L18.261 10.7204H27.2138C27.4046 10.7203 27.5904 10.7813 27.744 10.8945C27.8976 11.0076 28.0109 11.167 28.0674 11.3492C28.1239 11.5314 28.1205 11.7269 28.0578 11.9071C27.9951 12.0873 27.8764 12.2426 27.719 12.3504L20.4593 17.3242L23.2577 25.6156C23.303 25.7498 23.3158 25.8929 23.2949 26.0331C23.274 26.1732 23.2201 26.3064 23.1375 26.4215C23.055 26.5367 22.9463 26.6306 22.8203 26.6955C22.6944 26.7603 22.5548 26.7943 22.4131 26.7946Z"/>
</mask>
<path d="M22.4131 26.7946C22.2251 26.7953 22.0416 26.7367 21.8889 26.6271L14.7095 21.4222L7.53019 26.6271C7.37681 26.7383 7.19202 26.7979 7.00254 26.7972C6.81307 26.7965 6.62872 26.7356 6.47615 26.6233C6.32358 26.5109 6.21069 26.3529 6.15382 26.1722C6.09694 25.9914 6.09902 25.7973 6.15974 25.6178L8.95981 17.3242L1.70286 12.3477C1.54567 12.24 1.42704 12.0849 1.36428 11.905C1.30153 11.725 1.29796 11.5298 1.35408 11.3477C1.4102 11.1656 1.52307 11.0063 1.67622 10.8929C1.82936 10.7795 2.01474 10.7181 2.20527 10.7176H11.1581L13.8599 2.40285C13.9181 2.22334 14.0317 2.06687 14.1843 1.9559C14.337 1.84493 14.5208 1.78516 14.7095 1.78516C14.8983 1.78516 15.0821 1.84493 15.2348 1.9559C15.3874 2.06687 15.501 2.22334 15.5592 2.40285L18.261 10.7204H27.2138C27.4046 10.7203 27.5904 10.7813 27.744 10.8945C27.8976 11.0076 28.0109 11.167 28.0674 11.3492C28.1239 11.5314 28.1205 11.7269 28.0578 11.9071C27.9951 12.0873 27.8764 12.2426 27.719 12.3504L20.4593 17.3242L23.2577 25.6156C23.303 25.7498 23.3158 25.8929 23.2949 26.0331C23.274 26.1732 23.2201 26.3064 23.1375 26.4215C23.055 26.5367 22.9463 26.6306 22.8203 26.6955C22.6944 26.7603 22.5548 26.7943 22.4131 26.7946Z" fill="#FFBA40"/>
<path d="M22.4131 26.7946L22.409 24.5381L22.4043 24.5382L22.4131 26.7946ZM21.8889 26.6271L20.5645 28.4539L20.5735 28.4604L21.8889 26.6271ZM14.7095 21.4222L16.034 19.5954L14.7095 18.6352L13.3851 19.5954L14.7095 21.4222ZM7.53019 26.6271L6.20577 24.8003L6.20539 24.8005L7.53019 26.6271ZM6.15974 25.6178L8.29712 26.341L8.2976 26.3396L6.15974 25.6178ZM8.95981 17.3242L11.0977 18.046L11.6437 16.4288L10.2359 15.4634L8.95981 17.3242ZM1.70286 12.3477L2.979 10.4868L2.97802 10.4861L1.70286 12.3477ZM2.20527 10.7176V8.46121L2.19934 8.46123L2.20527 10.7176ZM11.1581 10.7176V12.974H12.7975L13.3041 11.4149L11.1581 10.7176ZM13.8599 2.40285L16.0059 3.10016L16.0063 3.09877L13.8599 2.40285ZM15.5592 2.40285L13.4128 3.09877L13.4131 3.09995L15.5592 2.40285ZM18.261 10.7204L16.115 11.4175L16.6215 12.9768H18.261V10.7204ZM27.2138 10.7204V12.9768H27.2149L27.2138 10.7204ZM27.719 12.3504L26.4438 10.4889L26.4437 10.489L27.719 12.3504ZM20.4593 17.3242L19.184 15.4628L17.7753 16.4279L18.3213 18.0458L20.4593 17.3242ZM23.2577 25.6156L21.1197 26.3371L21.1199 26.3376L23.2577 25.6156ZM22.4043 24.5382C22.6912 24.537 22.9712 24.6265 23.2043 24.7938L20.5735 28.4604C21.1121 28.8469 21.7589 29.0535 22.4219 29.0509L22.4043 24.5382ZM23.2133 24.8003L16.034 19.5954L13.3851 23.249L20.5645 28.4539L23.2133 24.8003ZM13.3851 19.5954L6.20577 24.8003L8.85461 28.4539L16.034 23.249L13.3851 19.5954ZM6.20539 24.8005C6.43949 24.6307 6.72154 24.5398 7.01075 24.5408L6.99434 29.0536C7.66251 29.0561 8.31412 28.8459 8.85499 28.4536L6.20539 24.8005ZM7.01075 24.5408C7.29995 24.5419 7.58133 24.6349 7.81419 24.8064L5.1381 28.4401C5.67611 28.8363 6.32618 29.0512 6.99434 29.0536L7.01075 24.5408ZM7.81419 24.8064C8.04706 24.9779 8.21936 25.219 8.30617 25.4949L4.00146 26.8495C4.20203 27.4869 4.60009 28.0439 5.1381 28.4401L7.81419 24.8064ZM8.30617 25.4949C8.39298 25.7707 8.38981 26.0671 8.29712 26.341L4.02237 24.8946C3.80822 25.5275 3.8009 26.2122 4.00146 26.8495L8.30617 25.4949ZM8.2976 26.3396L11.0977 18.046L6.82196 16.6025L4.02189 24.896L8.2976 26.3396ZM10.2359 15.4634L2.979 10.4868L0.426731 14.2085L7.68368 19.1851L10.2359 15.4634ZM2.97802 10.4861C3.21795 10.6505 3.39903 10.8872 3.49481 11.1618L-0.766237 12.6481C-0.544955 13.2825 -0.126601 13.8295 0.427705 14.2092L2.97802 10.4861ZM3.49481 11.1618C3.59058 11.4364 3.59604 11.7344 3.51039 12.0123L-0.802234 10.6831C-1.00013 11.3252 -0.98752 12.0137 -0.766237 12.6481L3.49481 11.1618ZM3.51039 12.0123C3.42473 12.2902 3.25244 12.5335 3.0187 12.7065L0.333731 9.07932C-0.206297 9.47906 -0.604335 10.041 -0.802234 10.6831L3.51039 12.0123ZM3.0187 12.7065C2.78496 12.8795 2.50201 12.9733 2.2112 12.974L2.19934 8.46123C1.52746 8.46299 0.873753 8.67957 0.333731 9.07932L3.0187 12.7065ZM2.20527 12.974H11.1581V8.46122H2.20527V12.974ZM13.3041 11.4149L16.0059 3.10016L11.714 1.70554L9.01215 10.0203L13.3041 11.4149ZM16.0063 3.09877C15.9175 3.37277 15.7442 3.61158 15.5112 3.78096L12.8575 0.130841C12.3192 0.522157 11.9188 1.0739 11.7135 1.70692L16.0063 3.09877ZM15.5112 3.78096C15.2782 3.95033 14.9976 4.04157 14.7095 4.04157V-0.471254C14.0441 -0.471254 13.3957 -0.260475 12.8575 0.130841L15.5112 3.78096ZM14.7095 4.04157C14.4215 4.04157 14.1409 3.95034 13.9079 3.78096L16.5616 0.130841C16.0234 -0.260477 15.375 -0.471254 14.7095 -0.471254V4.04157ZM13.9079 3.78096C13.6749 3.61158 13.5016 3.37276 13.4128 3.09877L17.7056 1.70692C17.5003 1.07391 17.0999 0.52216 16.5616 0.130841L13.9079 3.78096ZM13.4131 3.09995L16.115 11.4175L20.407 10.0233L17.7052 1.70575L13.4131 3.09995ZM18.261 12.9768H27.2138V8.46401H18.261V12.9768ZM27.2149 12.9768C26.9238 12.977 26.6402 12.8839 26.4057 12.7112L29.0822 9.07773C28.5406 8.67875 27.8854 8.46368 27.2127 8.46401L27.2149 12.9768ZM26.4057 12.7112C26.1713 12.5385 25.9983 12.2953 25.9121 12.0172L30.2227 10.6812C30.0235 10.0386 29.6239 9.47671 29.0822 9.07773L26.4057 12.7112ZM25.9121 12.0172C25.8259 11.739 25.831 11.4406 25.9267 11.1656L30.1889 12.6486C30.41 12.0132 30.4218 11.3237 30.2227 10.6812L25.9121 12.0172ZM25.9267 11.1656C26.0224 10.8906 26.2036 10.6535 26.4438 10.4889L28.9942 14.212C29.5492 13.8318 29.9679 13.2839 30.1889 12.6486L25.9267 11.1656ZM26.4437 10.489L19.184 15.4628L21.7346 19.1857L28.9943 14.2119L26.4437 10.489ZM18.3213 18.0458L21.1197 26.3371L25.3956 24.894L22.5972 16.6027L18.3213 18.0458ZM21.1199 26.3376C21.0507 26.1327 21.0312 25.9143 21.0631 25.7004L25.5266 26.3657C25.6003 25.8715 25.5553 25.3669 25.3954 24.8935L21.1199 26.3376ZM21.0631 25.7004C21.095 25.4865 21.1773 25.2833 21.3032 25.1075L24.9718 27.7356C25.2628 27.3294 25.453 26.8599 25.5266 26.3657L21.0631 25.7004ZM21.3032 25.1075C21.4292 24.9317 21.5952 24.7884 21.7874 24.6894L23.8532 28.7016C24.2974 28.4729 24.6809 28.1418 24.9718 27.7356L21.3032 25.1075ZM21.7874 24.6894C21.9797 24.5904 22.1928 24.5385 22.409 24.5381L22.4171 29.051C22.9168 29.0501 23.409 28.9303 23.8532 28.7016L21.7874 24.6894Z" fill="#FFBA40" mask="url(#path-1-inside-1)"/>
</svg>
