<svg width="39" height="38" viewBox="0 0 39 38" xmlns="http://www.w3.org/2000/svg">
<path fill-rule="evenodd" clip-rule="evenodd" d="M12.4642 1.72553C14.2857 1.64168 14.8664 1.62305 19.5062 1.62305C24.146 1.62305 24.7268 1.64323 26.5467 1.72553C28.3666 1.80783 29.6088 2.09821 30.6958 2.51902C31.834 2.94915 32.8666 3.62152 33.7207 4.49109C34.5902 5.34358 35.261 6.37465 35.6896 7.51442C36.112 8.60138 36.4008 9.84363 36.4847 11.6604C36.5685 13.485 36.5871 14.0657 36.5871 18.704C36.5871 23.3438 36.567 23.9245 36.4847 25.746C36.4024 27.5628 36.112 28.805 35.6896 29.892C35.261 31.0319 34.5891 32.0647 33.7207 32.9184C32.8666 33.788 31.834 34.4588 30.6958 34.8874C29.6088 35.3097 28.3666 35.5986 26.5498 35.6824C24.7268 35.7663 24.146 35.7849 19.5062 35.7849C14.8664 35.7849 14.2857 35.7647 12.4642 35.6824C10.6474 35.6001 9.40518 35.3097 8.31821 34.8874C7.17833 34.4588 6.14555 33.7868 5.29178 32.9184C4.4228 32.0654 3.75033 31.0331 3.32127 29.8935C2.90045 28.8066 2.61163 27.5643 2.52778 25.7475C2.44393 23.923 2.42529 23.3422 2.42529 18.704C2.42529 14.0642 2.44548 13.4834 2.52778 11.6635C2.61008 9.84363 2.90045 8.60138 3.32127 7.51442C3.75096 6.37478 4.42395 5.34252 5.29334 4.48954C6.14589 3.62074 7.17763 2.94828 8.31666 2.51902C9.40363 2.09821 10.6459 1.80938 12.4627 1.72553H12.4642ZM26.4085 4.8001C24.6072 4.7178 24.0668 4.70072 19.5062 4.70072C14.9456 4.70072 14.4052 4.7178 12.604 4.8001C10.9378 4.87619 10.0341 5.15414 9.43158 5.38862C8.63499 5.69918 8.0651 6.06719 7.46727 6.66503C6.90057 7.21636 6.46444 7.88753 6.19086 8.62933C5.95639 9.23183 5.67843 10.1356 5.60235 11.8017C5.52005 13.603 5.50297 14.1434 5.50297 18.704C5.50297 23.2646 5.52005 23.805 5.60235 25.6062C5.67843 27.2724 5.95639 28.1761 6.19086 28.7786C6.46416 29.5193 6.9005 30.1917 7.46727 30.7429C8.01852 31.3097 8.69089 31.746 9.43158 32.0193C10.0341 32.2538 10.9378 32.5318 12.604 32.6079C14.4052 32.6902 14.9441 32.7072 19.5062 32.7072C24.0684 32.7072 24.6072 32.6902 26.4085 32.6079C28.0746 32.5318 28.9784 32.2538 29.5809 32.0193C30.3775 31.7088 30.9473 31.3408 31.5452 30.7429C32.1119 30.1917 32.5483 29.5193 32.8216 28.7786C33.0561 28.1761 33.334 27.2724 33.4101 25.6062C33.4924 23.805 33.5095 23.2646 33.5095 18.704C33.5095 14.1434 33.4924 13.603 33.4101 11.8017C33.334 10.1356 33.0561 9.23183 32.8216 8.62933C32.511 7.83274 32.143 7.26286 31.5452 6.66503C30.9938 6.09836 30.3226 5.66224 29.5809 5.38862C28.9784 5.15414 28.0746 4.87619 26.4085 4.8001ZM17.3245 23.9696C18.5429 24.4768 19.8997 24.5452 21.163 24.1632C22.4262 23.7812 23.5177 22.9725 24.251 21.8752C24.9843 20.7779 25.3138 19.46 25.1834 18.1467C25.0529 16.8334 24.4706 15.6061 23.5358 14.6744C22.9399 14.0789 22.2193 13.6229 21.426 13.3392C20.6327 13.0556 19.7864 12.9514 18.948 13.0341C18.1096 13.1168 17.2999 13.3843 16.5773 13.8175C15.8547 14.2506 15.2371 14.8386 14.7691 15.5391C14.301 16.2396 13.994 17.0352 13.8703 17.8685C13.7466 18.7019 13.8092 19.5523 14.0536 20.3585C14.298 21.1648 14.7181 21.9068 15.2837 22.5312C15.8493 23.1556 16.5463 23.6469 17.3245 23.9696ZM13.2981 12.4958C14.1133 11.6806 15.0812 11.0339 16.1464 10.5926C17.2116 10.1514 18.3533 9.92434 19.5062 9.92434C20.6592 9.92434 21.8008 10.1514 22.866 10.5926C23.9312 11.0339 24.8991 11.6806 25.7144 12.4958C26.5296 13.3111 27.1763 14.279 27.6175 15.3442C28.0588 16.4094 28.2859 17.551 28.2859 18.704C28.2859 19.8569 28.0588 20.9986 27.6175 22.0638C27.1763 23.129 26.5296 24.0969 25.7144 24.9121C24.0679 26.5586 21.8347 27.4836 19.5062 27.4836C17.1777 27.4836 14.9446 26.5586 13.2981 24.9121C11.6516 23.2656 10.7266 21.0325 10.7266 18.704C10.7266 16.3755 11.6516 14.1423 13.2981 12.4958ZM30.233 11.2318C30.4351 11.0413 30.5968 10.8121 30.7087 10.5579C30.8205 10.3037 30.8803 10.0296 30.8843 9.75191C30.8884 9.47421 30.8367 9.19851 30.7322 8.94115C30.6278 8.68379 30.4728 8.45 30.2765 8.25361C30.0801 8.05723 29.8463 7.90224 29.5889 7.79783C29.3316 7.69342 29.0559 7.64171 28.7782 7.64576C28.5005 7.64981 28.2264 7.70953 27.9722 7.8214C27.718 7.93327 27.4888 8.095 27.2982 8.29703C26.9276 8.68994 26.7247 9.21183 26.7325 9.75191C26.7404 10.292 26.9585 10.8077 27.3404 11.1897C27.7223 11.5716 28.2381 11.7897 28.7782 11.7975C29.3182 11.8054 29.8401 11.6025 30.233 11.2318Z"/>
</svg>
