<svg width="23" height="23" viewBox="0 0 23 23" xmlns="http://www.w3.org/2000/svg">
<path d="M17.25 0H5.75C2.58778 0 0 2.58666 0 5.75V17.25C0 20.4122 2.58778 23 5.75 23H17.25C20.4122 23 23 20.4122 23 17.25V5.75C23 2.58666 20.4122 0 17.25 0ZM11.5 16.2915C8.85326 16.2915 6.70824 14.1456 6.70824 11.5C6.70824 8.85326 8.85326 6.70824 11.5 6.70824C14.1456 6.70824 16.2918 8.85326 16.2918 11.5C16.2918 14.1456 14.1456 16.2915 11.5 16.2915ZM17.7293 6.70824C16.9346 6.70824 16.2918 6.06451 16.2918 5.27074C16.2918 4.47697 16.9346 3.83324 17.7293 3.83324C18.5239 3.83324 19.1668 4.47697 19.1668 5.27074C19.1668 6.06451 18.5239 6.70824 17.7293 6.70824Z"/>
<mask id="mask0" mask-type="alpha" maskUnits="userSpaceOnUse" x="0" y="0" width="23" height="23">
<path d="M17.25 0H5.75C2.58778 0 0 2.58666 0 5.75V17.25C0 20.4122 2.58778 23 5.75 23H17.25C20.4122 23 23 20.4122 23 17.25V5.75C23 2.58666 20.4122 0 17.25 0ZM11.5 16.2915C8.85326 16.2915 6.70824 14.1456 6.70824 11.5C6.70824 8.85326 8.85326 6.70824 11.5 6.70824C14.1456 6.70824 16.2918 8.85326 16.2918 11.5C16.2918 14.1456 14.1456 16.2915 11.5 16.2915ZM17.7293 6.70824C16.9346 6.70824 16.2918 6.06451 16.2918 5.27074C16.2918 4.47697 16.9346 3.83324 17.7293 3.83324C18.5239 3.83324 19.1668 4.47697 19.1668 5.27074C19.1668 6.06451 18.5239 6.70824 17.7293 6.70824Z"/>
</mask>
<g mask="url(#mask0)">
</g>
</svg>
