<svg width="40" height="49" viewBox="0 0 40 49" fill="none" xmlns="http://www.w3.org/2000/svg">
<path d="M26.6213 3.85614C22.701 2.16079 14.8603 -1.44183 12.2468 3.22039V3.43231C8.0651 6.82301 4.92884 10.0018 2.838 15.0879C0.224459 20.8097 0.485813 27.5911 1.53123 33.7367C1.79259 35.8559 2.3153 39.6705 3.36072 43.0612C4.92884 44.9684 7.01968 46.8757 9.63322 47.5115C12.7695 48.3591 16.1671 48.1472 19.5647 47.7234C22.4396 47.2995 25.5759 47.2995 28.4508 46.8757H28.7121C30.5416 46.2399 32.3711 45.3923 34.2006 44.3327C35.246 43.0612 36.2914 41.5777 37.0755 40.0943C39.1663 35.4321 38.6436 30.346 38.6436 25.4719C38.6436 21.6573 38.3822 17.8428 38.3822 14.0283C36.5527 9.15412 32.3711 6.18725 26.6213 3.85614Z" fill="white" stroke="#007755" stroke-miterlimit="10"/>
<path opacity="0.7" d="M34.2002 32.4639C33.6775 32.4639 32.8934 32.252 32.3707 32.252C28.7118 32.6758 25.3141 33.9473 21.9165 35.2188C20.8711 35.6426 19.5643 36.2784 17.9962 36.4903C16.1667 37.3379 14.5986 37.9737 12.5078 38.3975C11.201 38.6095 9.63285 38.8214 8.06473 38.3975C7.01931 38.1856 5.71254 37.338 4.40576 37.126C4.92847 38.3975 7.54202 39.669 8.84879 39.8809C10.6783 40.3048 12.2464 39.669 13.8145 39.0333C14.3372 38.8214 14.8599 38.6095 15.3827 38.3975C15.1213 39.0333 14.8599 39.669 14.5986 40.0929C14.5986 39.669 14.3372 40.3048 14.3372 40.3048C14.0759 40.5167 13.5532 40.9405 13.2918 41.1524C12.7691 41.3644 11.985 42.212 11.201 42.424C12.7691 42.212 14.0759 41.7882 15.644 41.3644C16.1667 40.9405 16.6894 40.5167 16.9508 39.8809C17.4735 39.2452 17.4735 38.1856 17.9962 37.5499C17.9962 37.5499 17.9962 37.338 18.2576 37.338C18.7803 37.126 19.5643 36.9141 20.087 36.4903C21.1325 36.7022 22.4392 36.7022 23.746 36.9141C24.7914 36.9141 25.8368 36.9141 26.8823 36.9141C28.7117 36.9141 30.2799 36.4903 32.1094 36.0665C30.2799 35.6426 27.9277 35.6426 26.0982 35.4307C25.0528 35.4307 24.0074 35.4307 22.9619 35.4307C26.6209 34.1592 30.2799 32.8877 34.2002 32.4639Z" fill="white" stroke="#007755" stroke-miterlimit="10"/>
</svg>
