<svg width="34" height="38" viewBox="0 0 34 38" fill="none" xmlns="http://www.w3.org/2000/svg">
<path opacity="0.5" d="M6.61491 10.4337C5.56949 13.8244 6.35355 17.6389 6.09219 21.2415C6.09219 23.9965 5.5695 26.7514 5.04679 29.5063C-2.00978 21.4534 2.95595 12.5529 2.95595 12.5529C2.95595 12.5529 5.30814 8.73833 9.22845 6.61914C7.92168 7.89065 6.87627 9.37408 6.61491 10.4337Z" fill="white" stroke="#007755" stroke-miterlimit="10"/>
<path d="M2.95545 9.37341C2.95545 9.37341 10.5347 -3.97751 20.4662 3.22774C30.6591 10.433 36.1475 27.8104 30.3977 33.3203C24.6479 38.8302 13.671 38.6183 5.56901 29.2938C-2.533 19.9694 2.95545 9.37341 2.95545 9.37341Z" fill="white" stroke="#007755" stroke-miterlimit="10"/>
</svg>
