<svg width="36" height="41" viewBox="0 0 36 41" fill="none" xmlns="http://www.w3.org/2000/svg">
<path d="M8.19292 4.95443C11.3292 3.04716 16.8176 -0.767372 19.9539 2.83525C19.9539 2.83525 19.9539 3.04717 20.2152 3.04717C24.3969 5.16635 27.5332 7.49746 30.1467 11.312C33.283 15.7623 34.3284 21.2722 34.8511 26.3582C35.1124 28.2655 35.3738 31.2323 35.1124 34.1992C34.067 35.8946 32.7602 37.5899 30.6694 38.6495C28.0559 39.7091 25.181 39.921 22.5674 39.921C19.9539 39.921 17.6017 40.3448 14.9881 40.3448H14.7268C13.1587 40.1329 11.3292 39.7091 9.76104 39.0733C8.45427 38.2257 7.40886 37.1661 6.62479 35.8946C4.01125 32.5039 3.48854 28.2655 2.70447 24.239C2.18176 21.0603 1.39771 18.0934 0.875 14.9146C0.875 10.6762 3.74989 7.70937 8.19292 4.95443Z" fill="white" stroke="#007755" stroke-miterlimit="10"/>
<path opacity="0.7" d="M16.557 32.2931C16.8183 32.0812 16.557 31.6573 16.0343 31.6573C13.6821 31.6573 11.8526 30.8096 9.76172 30.1739C9.76172 30.1739 9.76173 30.1739 10.0231 30.1739C12.1139 30.5977 14.4661 31.0216 16.2956 30.3858C16.557 30.3858 16.8183 30.1739 17.0797 29.962C18.3865 29.3262 19.4319 28.4785 20.4773 27.6309C19.9546 28.6905 19.4319 29.5381 19.6932 30.5977C19.9546 31.6573 20.7387 32.2931 21.7841 32.9288C23.6136 33.9884 24.659 35.26 24.659 36.9553C23.8749 34.8361 22.0454 34.2004 20.2159 33.1408C19.4319 32.7169 19.1705 31.8692 18.6478 31.2335C18.6478 31.4454 18.9092 31.6573 18.9092 31.6573C18.6478 32.2931 18.3865 32.7169 17.8638 33.1408C17.6024 33.3527 17.0797 33.5646 16.8183 33.9884C16.8183 34.2004 16.557 34.6242 16.557 34.8361C16.557 35.048 16.0343 35.26 15.7729 35.4719C15.2502 35.6838 14.9888 36.3196 14.4661 36.5315C14.4661 36.5315 14.4661 36.5315 14.2048 36.5315C15.2502 35.048 15.7729 33.5646 16.557 32.2931Z" fill="white" stroke="#007755" stroke-miterlimit="10"/>
</svg>
