<svg width="38" height="41" viewBox="0 0 38 41" fill="none" xmlns="http://www.w3.org/2000/svg">
<path d="M8.98774 4.1545C12.124 2.45915 18.3965 -1.3554 21.5328 2.24723C21.5328 2.24723 21.5328 2.45915 21.7941 2.45915C25.9758 4.79026 29.3734 7.12138 32.2483 10.9359C35.3846 15.3862 36.43 20.8961 36.6914 25.9822C36.9527 28.9491 37.4754 32.3398 35.3846 35.0947C33.5551 37.6378 30.4188 38.6974 27.0212 39.1212C20.4874 39.9689 11.8626 40.1808 7.15826 35.7305C3.49929 32.3398 3.23793 27.2537 2.45387 23.0153C1.93116 19.8365 1.40845 16.6577 0.885742 13.6909C1.1471 9.66441 4.5447 6.48562 8.98774 4.1545Z" fill="white" stroke="#007755" stroke-miterlimit="10"/>
<path opacity="0.7" d="M16.0448 32.5499C16.0448 32.338 16.0448 32.126 15.7834 32.126C13.6926 31.7022 10.5563 30.0069 8.2041 30.0069C8.98817 29.7949 9.77224 29.583 10.5563 29.583C11.6017 29.795 12.3858 30.0069 13.4312 30.4307C14.4766 30.8545 15.522 30.8545 16.3061 30.8545C16.8288 30.8545 17.3515 30.8545 17.8742 30.8545C20.4878 30.6426 22.3173 28.9473 23.8854 27.252C23.8854 27.252 23.8854 27.2519 23.8854 27.4639C23.3627 28.3115 23.1013 29.3711 22.5786 30.4307C21.5332 32.338 23.6241 33.1856 25.1922 34.0333C25.9763 34.2452 26.499 34.881 27.0217 35.3048C27.0217 35.7286 27.0217 36.1525 26.7603 36.3644C26.499 36.1525 26.2376 35.9406 26.499 35.7286C27.0217 34.6691 23.8854 34.2452 23.1013 33.8214C22.0559 33.3975 21.5332 32.5499 21.0105 31.7022C20.7492 31.4903 20.7491 31.2784 20.4878 30.8545C19.4424 31.7022 18.1356 32.1261 16.5675 32.338C16.8288 32.7618 17.0902 33.1856 16.8288 33.6095C16.5675 34.0333 15.7834 34.2452 15.2607 34.4571C14.9993 34.4571 14.738 34.6691 14.738 34.6691C14.738 34.6691 14.4766 34.669 14.4766 34.881L14.2153 35.0929C14.2153 34.669 14.4766 34.2452 14.9993 33.8214C15.522 33.6095 15.7834 33.1856 16.0448 32.5499Z" fill="white" stroke="#007755" stroke-miterlimit="10"/>
</svg>
