<svg width="42" height="49" viewBox="0 0 42 49" fill="none" xmlns="http://www.w3.org/2000/svg">
<path d="M9.86324 4.63048C13.5222 2.51129 20.5788 -1.939 23.9764 2.29938C23.9764 2.29938 23.9764 2.51129 24.2378 2.51129C28.9422 5.26624 32.6011 8.23311 35.7374 12.8953C39.3963 18.1933 40.1804 24.9747 40.7031 31.1203C40.7031 33.2395 40.9645 37.0541 40.7031 40.6567C39.3963 42.7759 37.8282 44.8951 35.2147 45.9547C32.0784 47.2262 28.6808 47.4381 25.5445 47.4381C22.6696 47.4381 19.5334 47.65 16.6585 47.65H16.3971C14.5676 47.2262 12.4768 46.8023 10.3859 45.9547C9.07917 44.8951 7.77239 43.6236 6.72697 42.1401C3.85207 37.9017 3.32936 32.8157 2.5453 27.9416C2.02259 24.127 1.49989 20.3125 0.71582 16.4979C1.23853 11.4119 4.8975 7.59735 9.86324 4.63048Z" fill="white" stroke="#007755" stroke-miterlimit="10"/>
<path opacity="0.7" d="M9.6018 36.8428C9.34045 36.6309 9.34046 36.419 9.0791 36.419C10.9086 36.6309 12.7381 36.6309 14.5675 36.419C14.8289 36.419 14.8289 36.419 15.0903 36.2071C16.397 35.9951 17.7038 35.5713 19.0106 35.3594C19.5333 35.3594 20.056 35.3594 20.5787 35.5713C22.1468 35.9951 24.2377 37.2667 26.3285 37.6905C29.2034 38.7501 31.5556 38.1144 33.9078 36.6309C31.5556 38.9621 29.7261 39.5978 26.0671 38.3263C25.2831 37.9024 24.499 37.4786 23.4536 37.0548C22.9309 38.3263 21.3628 39.3859 21.1014 40.6574C20.84 42.1409 22.1468 43.4124 22.4082 44.684C22.1468 44.472 21.8855 44.472 21.6241 44.2601C21.1014 43.2005 20.3173 42.3528 19.7946 41.5051C19.5333 41.717 19.5333 41.929 19.2719 42.1409C18.7492 42.7766 17.7038 43.4124 16.9197 43.6243C16.1357 44.0482 14.8289 43.6244 14.0448 43.4124C14.3062 43.4124 14.5675 43.2005 14.8289 43.2005C16.9197 42.7766 19.0106 41.717 19.2719 40.0217C19.2719 39.8097 19.2719 39.5978 19.2719 39.5978C19.2719 38.5382 20.056 37.9024 21.1014 37.2667C21.1014 37.2667 21.1014 37.2667 21.1014 37.0548C20.3173 36.8428 19.2719 36.6309 19.5333 36.6309C17.7038 36.8428 16.1357 37.4786 14.0448 37.4786C12.4767 37.6905 10.9086 37.4786 9.6018 36.8428Z" fill="white" stroke="#007755" stroke-miterlimit="10"/>
</svg>
