<svg width="40" height="49" viewBox="0 0 40 49" fill="none" xmlns="http://www.w3.org/2000/svg">
<path d="M13.4876 3.85589C17.4079 2.16054 25.2486 -1.23016 27.8621 3.43206V3.64398C32.0438 7.03468 35.18 10.2135 37.2709 15.2995C39.8844 21.0213 39.6231 27.8027 38.5777 33.9484C38.3163 36.0676 37.7936 39.8821 36.7482 43.2728C35.1801 45.1801 33.0892 47.0874 30.4757 47.7231C27.3394 48.5708 23.9418 48.3589 20.5442 47.935C17.6693 47.5112 14.533 47.5112 11.6581 47.0874H11.3968C9.56731 46.4516 7.73781 45.6039 5.90833 44.5443C4.86291 43.2728 3.81749 41.7894 3.03343 40.306C0.942593 35.6437 1.46531 30.5577 1.46531 25.6836C1.46531 21.869 1.72666 18.0545 1.72666 14.2399C3.55614 9.15387 7.73781 6.187 13.4876 3.85589Z" fill="white" stroke="#007755" stroke-miterlimit="10"/>
<path opacity="0.7" d="M5.90918 32.4639C6.43189 32.4639 7.21596 32.252 7.73867 32.252C11.3976 32.6758 14.7952 33.9473 18.1928 35.2188C19.2383 35.6426 20.545 36.2784 22.1131 36.4903C23.9426 37.3379 25.5107 37.9737 27.6016 38.3975C28.9083 38.6095 30.4765 38.8214 32.0446 38.3975C33.09 38.1856 34.3968 37.338 35.7036 37.126C35.1808 38.3975 32.5673 39.669 31.2605 39.8809C29.4311 40.3048 27.8629 39.669 26.2948 39.0333C25.7721 38.8214 25.2494 38.6095 24.7267 38.3975C24.988 39.0333 25.2494 39.669 25.5107 40.0929C25.5107 39.669 25.7721 40.3048 25.7721 40.3048C26.0335 40.5167 26.5562 40.9405 26.8175 41.1524C27.3402 41.3644 28.1243 42.212 28.9083 42.424C27.3402 42.212 26.0335 41.7882 24.4653 41.3644C23.9426 40.9405 23.4199 40.5167 23.1586 39.8809C22.6359 39.2452 22.6359 38.1856 22.1131 37.5499C22.1131 37.5499 22.1132 37.338 21.8518 37.338C21.3291 37.126 20.545 36.9141 20.0223 36.4903C18.9769 36.7022 17.6701 36.7022 16.3633 36.9141C15.3179 36.9141 14.2725 36.9141 13.2271 36.9141C11.3976 36.9141 9.8295 36.4903 8.00002 36.0665C9.8295 35.6426 12.1817 35.6426 14.0112 35.4307C15.0566 35.4307 16.102 35.4307 17.1474 35.4307C13.4885 34.1592 9.82949 32.8877 5.90918 32.4639Z" fill="white" stroke="#007755" stroke-miterlimit="10"/>
</svg>
