<svg width="42" height="49" viewBox="0 0 42 49" fill="none" xmlns="http://www.w3.org/2000/svg">
<path d="M32.2455 4.63048C28.5865 2.51129 21.53 -1.939 18.1324 2.29938C18.1324 2.29938 18.1324 2.51129 17.871 2.51129C13.1666 5.26624 9.50765 8.23311 6.37139 12.8953C2.71243 18.1933 1.92836 24.9747 1.40566 31.1203C1.40566 33.2395 0.882946 37.0541 1.40566 40.6567C2.71243 42.7759 4.28056 44.8951 6.8941 45.9547C10.0304 47.2262 13.428 47.4381 16.5642 47.4381C19.4391 47.4381 22.5754 47.65 25.4503 47.65H25.7116C27.5411 47.2262 29.632 46.8023 31.7228 45.9547C33.0296 44.8951 34.3363 43.6236 35.3818 42.1401C38.2567 37.9017 38.7794 32.8157 39.5634 27.9416C40.0861 24.127 40.6088 20.3125 41.3929 16.4979C40.8702 11.4119 37.2112 7.59735 32.2455 4.63048Z" fill="white" stroke="#007755" stroke-miterlimit="10"/>
<path opacity="0.7" d="M32.5076 36.8428C32.769 36.6309 32.769 36.419 33.0303 36.419C31.2009 36.6309 29.3714 36.6309 27.5419 36.419C27.2805 36.419 27.2805 36.419 27.0192 36.2071C25.7124 35.9951 24.4056 35.5713 23.0989 35.3594C22.5762 35.3594 22.0534 35.3594 21.5307 35.5713C19.9626 35.9951 17.8718 37.2667 15.7809 37.6905C12.906 38.7501 10.5539 38.1144 8.20166 36.6309C10.5539 38.9621 12.3833 39.5978 16.0423 38.3263C16.8264 37.9024 17.6104 37.4786 18.6558 37.0548C19.1785 38.3263 20.7467 39.3859 21.008 40.6574C21.2694 42.1409 19.9626 43.4124 19.7013 44.684C19.9626 44.472 20.224 44.472 20.4853 44.2601C21.008 43.2005 21.7921 42.3528 22.3148 41.5051C22.5762 41.717 22.5762 41.929 22.8375 42.1409C23.3602 42.7766 24.4056 43.4124 25.1897 43.6243C25.9738 44.0482 27.2805 43.6244 28.0646 43.4124C27.8032 43.4124 27.5419 43.2005 27.2805 43.2005C25.1897 42.7766 23.0989 41.717 22.8375 40.0217C22.8375 39.8097 22.8375 39.5978 22.8375 39.5978C22.8375 38.5382 22.0534 37.9024 21.008 37.2667C21.008 37.2667 21.008 37.2667 21.008 37.0548C21.7921 36.8428 22.8375 36.6309 22.5762 36.6309C24.4056 36.8428 25.9738 37.4786 28.0646 37.4786C29.6327 37.6905 31.2009 37.4786 32.5076 36.8428Z" fill="white" stroke="#007755" stroke-miterlimit="10"/>
</svg>
