<svg width="38" height="41" viewBox="0 0 38 41" fill="none" xmlns="http://www.w3.org/2000/svg">
<path d="M29.1214 4.1545C25.9851 2.45915 19.7126 -1.3554 16.5763 2.24723C16.5763 2.24723 16.5763 2.45915 16.315 2.45915C12.1333 4.79026 8.7357 7.12138 5.8608 10.9359C2.72454 15.3862 1.67913 20.8961 1.41777 25.9822C1.15642 28.9491 0.633708 32.3398 2.72454 35.0947C4.55403 37.6378 7.69028 38.6974 11.0879 39.1212C17.6218 39.9689 26.2465 40.1808 30.9508 35.7305C34.6098 32.3398 34.8712 27.2537 35.6552 23.0153C36.1779 19.8365 36.7006 16.6577 37.2234 13.6909C36.962 9.66441 33.5644 6.48562 29.1214 4.1545Z" fill="white" stroke="#007755" stroke-miterlimit="10"/>
<path opacity="0.7" d="M22.0643 32.5499C22.0643 32.338 22.0643 32.126 22.3257 32.126C24.4165 31.7022 27.5527 30.0069 29.9049 30.0069C29.1209 29.7949 28.3368 29.583 27.5527 29.583C26.5073 29.795 25.7233 30.0069 24.6778 30.4307C23.6324 30.8545 22.587 30.8545 21.8029 30.8545C21.2802 30.8545 20.7575 30.8545 20.2348 30.8545C17.6213 30.6426 15.7918 28.9473 14.2237 27.252C14.2237 27.252 14.2237 27.2519 14.2237 27.4639C14.7464 28.3115 15.0077 29.3711 15.5304 30.4307C16.5759 32.338 14.485 33.1856 12.9169 34.0333C12.1328 34.2452 11.6101 34.881 11.0874 35.3048C11.0874 35.7286 11.0874 36.1525 11.3488 36.3644C11.6101 36.1525 11.8715 35.9406 11.6101 35.7286C11.0874 34.6691 14.2237 34.2452 15.0077 33.8214C16.0531 33.3975 16.5758 32.5499 17.0986 31.7022C17.3599 31.4903 17.3599 31.2784 17.6213 30.8545C18.6667 31.7022 19.9735 32.1261 21.5416 32.338C21.2802 32.7618 21.0189 33.1856 21.2802 33.6095C21.5416 34.0333 22.3257 34.2452 22.8484 34.4571C23.1097 34.4571 23.3711 34.6691 23.3711 34.6691C23.3711 34.6691 23.6324 34.669 23.6324 34.881L23.8938 35.0929C23.8938 34.669 23.6324 34.2452 23.1097 33.8214C22.587 33.6095 22.3257 33.1856 22.0643 32.5499Z" fill="white" stroke="#007755" stroke-miterlimit="10"/>
</svg>
