<svg width="36" height="40" viewBox="0 0 36 40" fill="none" xmlns="http://www.w3.org/2000/svg">
<path d="M16.1555 1.83594C16.1555 1.83594 16.1555 2.04786 16.1555 1.83594C11.9738 4.16705 8.57621 6.49815 5.96267 10.3127C2.82641 14.763 1.78099 20.2729 1.25828 25.3589C0.996929 27.2662 0.735574 30.2331 0.996928 33.1999C2.04235 34.8953 3.34912 36.5906 5.43996 37.6502C8.0535 38.7098 10.9284 38.9217 13.5419 38.9217C16.1555 38.9217 18.5077 39.3456 21.1212 39.3456H21.3826C22.9507 39.1337 24.7802 38.7098 26.3483 38.0741C27.6551 37.2264 28.7005 36.1668 29.4846 34.8953C32.0981 31.5046 32.6208 27.2662 33.4049 23.2397C33.9276 20.061 34.7117 17.0941 35.2344 13.9153" fill="white"/>
<path d="M16.1555 1.83594C16.1555 1.83594 16.1555 2.04786 16.1555 1.83594C11.9738 4.16705 8.57621 6.49815 5.96267 10.3127C2.82641 14.763 1.78099 20.2729 1.25828 25.3589C0.996929 27.2662 0.735574 30.2331 0.996928 33.1999C2.04235 34.8953 3.34912 36.5906 5.43996 37.6502C8.0535 38.7098 10.9284 38.9217 13.5419 38.9217C16.1555 38.9217 18.5077 39.3456 21.1212 39.3456H21.3826C22.9507 39.1337 24.7802 38.7098 26.3483 38.0741C27.6551 37.2264 28.7005 36.1668 29.4846 34.8953C32.0981 31.5046 32.6208 27.2662 33.4049 23.2397C33.9276 20.061 34.7117 17.0941 35.2344 13.9153" stroke="#007755" stroke-miterlimit="10"/>
<path opacity="0.7" d="M19.5527 31.2931C19.2913 31.0812 19.5527 30.6573 20.0754 30.6573C22.4276 30.6573 24.2571 29.8096 26.3479 29.1739C26.3479 29.1739 26.3479 29.1739 26.0865 29.1739C23.9957 29.5977 21.6435 30.0216 19.814 29.3858C19.5527 29.3858 19.2913 29.1739 19.03 28.962C17.7232 28.3262 16.6778 27.4785 15.6324 26.6309C16.1551 27.6905 16.6778 28.5381 16.4164 29.5977C16.1551 30.6573 15.371 31.2931 14.3256 31.9288C12.4961 32.9884 11.4507 34.26 11.4507 35.9553C12.2347 33.8361 14.0642 33.2004 15.8937 32.1408C16.6778 31.7169 16.9391 30.8692 17.4618 30.2335C17.4618 30.4454 17.2005 30.6573 17.2005 30.6573C17.4618 31.2931 17.7232 31.7169 18.2459 32.1408C18.5073 32.3527 19.03 32.5646 19.2913 32.9884C19.2913 33.2004 19.5527 33.6242 19.5527 33.8361C19.5527 34.048 20.0754 34.26 20.3367 34.4719C20.8595 34.6838 21.1208 35.3196 21.6435 35.5315C21.6435 35.5315 21.6435 35.5315 21.9049 35.5315C20.8595 34.048 20.3367 32.5646 19.5527 31.2931Z" fill="white" stroke="#007755" stroke-miterlimit="10"/>
</svg>
