<svg width="34" height="38" viewBox="0 0 34 38" fill="none" xmlns="http://www.w3.org/2000/svg">
<g opacity="0.5">
<path d="M29.0625 29.2935C36.1191 21.2406 31.1534 12.34 31.1534 12.34C31.1534 12.34 28.8012 8.52544 24.8809 6.40625C26.1876 7.88968 27.4944 9.58503 27.7558 10.4327C28.8012 13.8234 28.0171 17.6379 28.2785 21.2406" fill="white"/>
<path d="M29.0625 29.2935C36.1191 21.2405 31.1534 12.34 31.1534 12.34C31.1534 12.34 28.8012 8.52544 24.8809 6.40625C26.1876 7.88968 27.4944 9.58503 27.7558 10.4327C28.8012 13.8234 28.0171 17.6379 28.2785 21.2406" stroke="#007755" stroke-miterlimit="10"/>
</g>
<path d="M31.1537 9.37341C31.1537 9.37341 23.5744 -3.97751 13.6429 3.22774C3.4501 10.433 -2.03835 27.8104 3.71146 33.3203C9.46126 38.8302 20.4381 38.6183 28.5401 29.2938C36.9035 19.9694 31.1537 9.37341 31.1537 9.37341Z" fill="white" stroke="#007755" stroke-miterlimit="10"/>
</svg>
