<svg width="39" height="38" viewBox="0 0 39 38" xmlns="http://www.w3.org/2000/svg">
<g clip-path="url(#clip0)">
<path fill-rule="evenodd" clip-rule="evenodd" d="M37.2206 9.30605C37.4783 8.45821 37.2206 7.83398 35.9861 7.83398H31.91C30.8727 7.83398 30.3944 8.37281 30.1351 8.96754C30.1351 8.96754 28.0621 13.9303 25.1257 17.154C24.1754 18.0888 23.7437 18.3853 23.2251 18.3853C22.9658 18.3853 22.576 18.0888 22.576 17.2394V9.30605C22.576 8.28741 22.2903 7.83398 21.4269 7.83398H15.0169C14.3694 7.83398 13.9796 8.30604 13.9796 8.7548C13.9796 9.7191 15.4486 9.9427 15.5992 12.657V18.5546C15.5992 19.8481 15.3616 20.0826 14.843 20.0826C13.461 20.0826 10.0992 15.0965 8.10379 9.39145C7.71714 8.28119 7.32583 7.83398 6.2839 7.83398H2.20466C1.04005 7.83398 0.807129 8.37281 0.807129 8.96754C0.807129 10.0266 2.18913 15.2875 7.24354 22.2456C10.6131 26.9972 15.357 29.5734 19.6785 29.5734C22.2701 29.5734 22.59 29.0019 22.59 28.0159V24.4242C22.59 23.2798 22.8353 23.0515 23.6568 23.0515C24.2624 23.0515 25.2981 23.3497 27.7174 25.6401C30.4814 28.3559 30.9363 29.5734 32.4923 29.5734H36.5684C37.733 29.5734 38.3169 29.0019 37.9815 27.8715C37.6119 26.7472 36.292 25.1152 34.542 23.1789C33.5917 22.0764 32.1662 20.8885 31.7329 20.2937C31.1289 19.5313 31.3013 19.1913 31.7329 18.5127C31.7329 18.5127 36.7019 11.6399 37.219 9.30605H37.2206Z"/>
</g>
<defs>
<clipPath id="clip0">
<rect width="37.2675" height="37.2675" transform="translate(0.807617 0.0703125)"/>
</clipPath>
</defs>
</svg>
