<svg width="39" height="38" viewBox="0 0 39 38" xmlns="http://www.w3.org/2000/svg">
<g clip-path="url(#clip0)">
<path d="M19.4952 4.72656H19.7025C21.6171 4.73355 31.3183 4.80343 33.934 5.50685C34.7248 5.72153 35.4453 6.13998 36.0237 6.72039C36.6021 7.3008 37.018 8.02283 37.2299 8.81434C37.4651 9.69944 37.6305 10.871 37.7423 12.0799L37.7656 12.3221L37.8168 12.9277L37.8355 13.17C37.9869 15.2989 38.0055 17.2927 38.0078 17.7283V17.9029C38.0055 18.3548 37.9845 20.4837 37.8168 22.7011L37.7982 22.9457L37.7772 23.1879C37.6608 24.5203 37.4884 25.8433 37.2299 26.8169C37.0186 27.6087 36.6029 28.3311 36.0245 28.9116C35.446 29.4921 34.7251 29.9103 33.934 30.1244C31.2321 30.8511 20.9626 30.9023 19.5395 30.9046H19.2087C18.489 30.9046 15.5122 30.8907 12.3911 30.7835L11.9951 30.7696L11.7925 30.7602L11.3942 30.7439L10.9959 30.7276C8.41046 30.6135 5.94848 30.4295 4.81415 30.122C4.02336 29.9082 3.30264 29.4903 2.7242 28.9102C2.14576 28.3302 1.72991 27.6083 1.51831 26.8169C1.25976 25.8456 1.0874 24.5203 0.970939 23.1879L0.952305 22.9434L0.933672 22.7011C0.818719 21.1229 0.75502 19.5413 0.742676 17.9588L0.742676 17.6724C0.747334 17.1716 0.765968 15.441 0.891746 13.531L0.90805 13.2911L0.915038 13.17L0.933672 12.9277L0.984914 12.3221L1.00821 12.0799C1.12001 10.871 1.28538 9.69711 1.52063 8.81434C1.73188 8.02252 2.14757 7.30014 2.72604 6.71963C3.3045 6.13913 4.0254 5.72089 4.81648 5.50685C5.95081 5.20405 8.41279 5.01771 10.9982 4.90125L11.3942 4.88495L11.7948 4.87097L11.9951 4.86399L12.3934 4.84768C14.6102 4.77635 16.8278 4.73675 19.0457 4.72889H19.4952V4.72656ZM15.6497 12.2034V23.4255L25.3322 17.8168L15.6497 12.2034Z"/>
</g>
<defs>
<clipPath id="clip0">
<rect width="37.2675" height="37.2675" transform="translate(0.742188 0.0703125)"/>
</clipPath>
</defs>
</svg>
